<?xml version="1.0" encoding="UTF-8" ?>
<!DOCTYPE svg PUBLIC "-//W3C//DTD SVG 1.1//EN" "http://www.w3.org/Graphics/SVG/1.1/DTD/svg11.dtd">
<svg width="510pt" height="541pt" viewBox="0 0 510 541" version="1.1" xmlns="http://www.w3.org/2000/svg">
<path fill="#ffffff" d=" M 0.00 0.00 L 510.00 0.00 L 510.00 541.00 L 0.00 541.00 L 0.00 61.59 C 3.98 66.01 5.52 72.13 8.83 77.07 C 41.37 138.12 73.76 199.25 106.29 260.32 C 125.28 296.02 144.22 331.75 163.25 367.43 C 159.97 368.30 162.02 372.55 161.54 375.00 C 163.43 375.00 165.33 374.99 167.23 374.97 C 195.65 428.43 224.06 481.89 252.49 535.36 C 252.74 535.82 253.26 536.74 253.52 537.20 C 254.19 538.31 255.30 539.04 256.63 538.69 C 264.70 524.57 271.86 509.93 279.70 495.67 C 353.93 355.95 428.20 216.29 502.46 76.59 C 504.33 72.36 507.21 68.62 508.63 64.19 C 507.66 63.66 506.70 63.13 505.75 62.59 C 506.00 62.08 506.52 61.06 506.77 60.55 C 472.17 60.55 437.56 60.55 402.96 60.55 C 377.80 60.76 352.68 60.06 327.53 60.27 C 330.61 40.32 333.73 20.37 336.79 0.42 C 281.08 10.39 225.37 20.33 169.65 30.29 C 158.67 32.28 147.67 34.20 136.69 36.19 C 124.29 38.43 111.86 40.58 99.46 42.86 C 86.03 45.24 72.59 47.62 59.16 50.04 C 47.69 52.11 36.21 54.12 24.74 56.20 C 16.49 57.54 8.32 59.43 0.00 60.31 L 0.00 0.00 Z" />
<path fill="#353535" d=" M 169.65 30.29 C 225.37 20.33 281.08 10.39 336.79 0.42 C 333.73 20.37 330.61 40.32 327.53 60.27 C 324.59 79.46 321.55 98.64 318.64 117.84 C 318.28 120.17 317.92 122.50 317.56 124.83 C 315.98 134.45 314.54 144.10 313.06 153.74 C 312.68 156.09 312.30 158.44 311.95 160.79 C 310.54 170.21 309.00 179.61 307.59 189.03 C 307.22 191.37 306.90 193.71 306.56 196.06 C 304.87 205.69 303.51 215.37 301.96 225.02 C 301.63 227.05 301.33 229.09 301.07 231.14 C 300.60 231.25 299.66 231.46 299.20 231.57 C 297.88 228.06 294.65 226.02 292.25 223.33 C 292.48 222.89 292.95 222.00 293.18 221.55 C 291.83 218.39 289.82 215.43 286.75 213.74 C 286.89 213.29 287.03 212.85 287.18 212.41 C 284.80 210.70 284.91 207.11 281.93 206.09 C 281.76 205.36 281.61 204.63 281.46 203.90 C 279.63 202.47 277.52 200.90 277.40 198.36 C 277.18 195.29 275.31 192.79 273.31 190.61 C 270.55 187.70 269.02 183.95 266.92 180.59 C 267.03 180.14 267.14 179.70 267.26 179.26 C 260.67 175.07 258.71 166.99 253.17 161.80 C 251.92 158.14 249.88 154.82 248.81 151.08 C 248.64 149.88 247.44 149.63 246.53 149.21 C 246.42 148.62 246.30 148.03 246.19 147.44 C 242.94 145.02 239.68 141.92 239.22 137.67 C 236.09 133.04 232.86 128.37 230.16 123.44 C 229.17 122.34 227.85 121.62 226.69 120.73 C 227.03 120.09 227.37 119.46 227.72 118.83 C 227.11 118.57 226.51 118.31 225.91 118.06 C 224.28 112.37 220.74 107.50 217.09 102.94 C 216.21 101.82 214.19 101.58 214.12 99.92 C 214.00 99.04 214.04 98.16 214.07 97.28 C 212.45 95.67 210.87 93.99 210.04 91.83 C 209.44 89.94 207.15 89.47 206.45 87.64 C 205.23 84.95 202.46 82.95 202.49 79.79 C 200.29 79.45 197.83 77.48 199.32 75.13 C 198.41 74.68 197.50 74.23 196.59 73.79 C 196.94 73.19 197.29 72.59 197.64 72.00 C 195.81 69.24 192.76 67.42 191.48 64.28 C 190.42 61.67 187.87 59.84 187.52 56.92 C 187.53 55.64 186.05 55.64 185.21 55.15 C 185.50 54.73 186.09 53.87 186.38 53.44 C 183.13 50.73 180.00 47.68 178.19 43.79 C 176.16 38.85 173.40 34.13 169.65 30.29 Z" />
<path fill="#2d2d2d" d=" M 136.69 36.19 C 147.67 34.20 158.67 32.28 169.65 30.29 C 173.40 34.13 176.16 38.85 178.19 43.79 C 180.00 47.68 183.13 50.73 186.38 53.44 C 186.09 53.87 185.50 54.73 185.21 55.15 C 186.05 55.64 187.53 55.64 187.52 56.92 C 187.87 59.84 190.42 61.67 191.48 64.28 C 192.76 67.42 195.81 69.24 197.64 72.00 C 197.29 72.59 196.94 73.19 196.59 73.79 C 197.50 74.23 198.41 74.68 199.32 75.13 C 197.83 77.48 200.29 79.45 202.49 79.79 C 202.46 82.95 205.23 84.95 206.45 87.64 C 207.15 89.47 209.44 89.94 210.04 91.83 C 210.87 93.99 212.45 95.67 214.07 97.28 C 214.04 98.16 214.00 99.04 214.12 99.92 C 214.19 101.58 216.21 101.82 217.09 102.94 C 220.74 107.50 224.28 112.37 225.91 118.06 C 226.51 118.31 227.11 118.57 227.72 118.83 C 227.37 119.46 227.03 120.09 226.69 120.73 C 227.85 121.62 229.17 122.34 230.16 123.44 C 232.86 128.37 236.09 133.04 239.22 137.67 C 239.68 141.92 242.94 145.02 246.19 147.44 C 246.30 148.03 246.42 148.62 246.53 149.21 C 247.44 149.63 248.64 149.88 248.81 151.08 C 249.88 154.82 251.92 158.14 253.17 161.80 C 258.71 166.99 260.67 175.07 267.26 179.26 C 267.14 179.70 267.03 180.14 266.92 180.59 C 269.02 183.95 270.55 187.70 273.31 190.61 C 275.31 192.79 277.18 195.29 277.40 198.36 C 277.52 200.90 279.63 202.47 281.46 203.90 C 281.61 204.63 281.76 205.36 281.93 206.09 C 284.91 207.11 284.80 210.70 287.18 212.41 C 287.03 212.85 286.89 213.29 286.75 213.74 C 289.82 215.43 291.83 218.39 293.18 221.55 C 292.95 222.00 292.48 222.89 292.25 223.33 C 294.65 226.02 297.88 228.06 299.20 231.57 C 299.66 231.46 300.60 231.25 301.07 231.14 L 300.94 232.07 C 299.50 241.08 298.21 250.11 296.61 259.09 C 296.13 262.05 295.76 265.03 295.32 268.00 C 294.83 271.01 294.37 274.03 293.96 277.06 C 293.43 277.29 292.37 277.74 291.84 277.96 C 291.28 277.26 290.72 276.57 290.17 275.87 C 291.00 275.33 291.84 274.79 292.68 274.25 C 290.91 273.79 289.15 273.30 287.40 272.79 C 287.93 271.71 288.51 270.64 288.75 269.45 C 286.53 268.58 283.39 267.99 283.39 265.00 C 283.10 261.22 279.84 259.00 277.46 256.48 C 278.17 256.13 278.88 255.78 279.59 255.43 C 275.84 252.85 275.08 247.71 270.78 245.71 C 270.92 245.26 271.07 244.81 271.22 244.37 C 269.57 243.07 268.57 241.30 268.31 239.24 C 268.12 236.88 265.53 236.30 264.17 234.79 C 262.98 232.86 261.33 231.11 261.08 228.77 C 260.14 223.84 254.07 221.47 254.23 216.21 C 253.23 214.88 251.86 213.87 250.70 212.68 C 250.84 212.32 251.13 211.58 251.27 211.21 C 249.60 209.81 245.64 208.19 247.32 205.44 C 246.14 204.86 244.18 204.98 243.85 203.40 C 243.05 200.06 238.90 198.08 240.03 194.25 C 237.75 191.85 233.98 189.76 234.45 185.95 C 233.20 184.61 232.61 182.66 230.78 181.96 C 230.63 178.77 227.34 177.63 225.69 175.33 C 223.14 172.63 223.26 168.69 221.73 165.48 C 221.22 165.83 220.72 166.18 220.22 166.52 C 219.90 164.94 219.58 163.35 219.27 161.77 C 221.32 158.16 221.61 153.75 220.09 149.90 C 218.81 145.94 215.69 141.42 211.02 141.70 C 208.70 141.67 207.27 143.69 206.06 145.36 C 206.15 139.29 201.02 135.37 197.95 130.70 C 198.39 128.59 196.03 127.44 195.32 125.67 C 194.37 123.68 192.93 122.08 191.17 120.79 C 189.76 118.60 188.40 116.37 186.98 114.19 C 186.17 112.12 186.03 109.87 185.43 107.74 C 184.01 107.15 181.88 107.15 181.64 105.25 C 180.79 101.64 177.15 99.85 175.36 96.78 C 175.89 95.74 176.41 94.70 176.94 93.67 C 175.46 92.94 173.88 92.41 172.44 91.62 C 171.16 89.76 171.39 87.26 170.24 85.32 C 167.94 83.15 165.16 81.27 163.73 78.35 C 163.50 76.85 163.63 75.32 163.41 73.82 C 161.84 71.84 159.39 70.63 158.24 68.32 C 156.85 65.35 153.62 63.42 153.35 59.95 C 150.94 57.94 149.00 55.45 147.50 52.69 C 147.80 51.91 148.11 51.12 148.42 50.34 C 147.12 49.81 145.82 49.29 144.52 48.75 C 144.76 48.33 145.24 47.48 145.48 47.06 C 143.98 44.69 142.36 42.26 139.87 40.83 C 139.70 39.69 139.56 38.54 139.44 37.39 C 138.75 37.09 137.38 36.49 136.69 36.19 Z" />
<path fill="#252525" d=" M 99.46 42.86 C 111.86 40.58 124.29 38.43 136.69 36.19 C 137.38 36.49 138.75 37.09 139.44 37.39 C 139.56 38.54 139.70 39.69 139.87 40.83 C 142.36 42.26 143.98 44.69 145.48 47.06 C 145.24 47.48 144.76 48.33 144.52 48.75 C 145.82 49.29 147.12 49.81 148.42 50.34 C 148.11 51.12 147.80 51.91 147.50 52.69 C 149.00 55.45 150.94 57.94 153.35 59.95 C 153.62 63.42 156.85 65.35 158.24 68.32 C 159.39 70.63 161.84 71.84 163.41 73.82 C 163.63 75.32 163.50 76.85 163.73 78.35 C 165.16 81.27 167.94 83.15 170.24 85.32 C 171.39 87.26 171.16 89.76 172.44 91.62 C 173.88 92.41 175.46 92.94 176.94 93.67 C 176.41 94.70 175.89 95.74 175.36 96.78 C 177.15 99.85 180.79 101.64 181.64 105.25 C 181.88 107.15 184.01 107.15 185.43 107.74 C 186.03 109.87 186.17 112.12 186.98 114.19 C 188.40 116.37 189.76 118.60 191.17 120.79 C 192.93 122.08 194.37 123.68 195.32 125.67 C 196.03 127.44 198.39 128.59 197.95 130.70 C 201.02 135.37 206.15 139.29 206.06 145.36 C 203.61 151.26 205.37 158.69 210.29 162.78 C 212.93 165.08 217.26 164.70 219.27 161.77 C 219.58 163.35 219.90 164.94 220.22 166.52 C 220.72 166.18 221.22 165.83 221.73 165.48 C 223.26 168.69 223.14 172.63 225.69 175.33 C 227.34 177.63 230.63 178.77 230.78 181.96 C 232.61 182.66 233.20 184.61 234.45 185.95 C 233.98 189.76 237.75 191.85 240.03 194.25 C 238.90 198.08 243.05 200.06 243.85 203.40 C 244.18 204.98 246.14 204.86 247.32 205.44 C 245.64 208.19 249.60 209.81 251.27 211.21 C 251.13 211.58 250.84 212.32 250.70 212.68 C 251.86 213.87 253.23 214.88 254.23 216.21 C 254.07 221.47 260.14 223.84 261.08 228.77 C 261.33 231.11 262.98 232.86 264.17 234.79 C 265.53 236.30 268.12 236.88 268.31 239.24 C 268.57 241.30 269.57 243.07 271.22 244.37 C 271.07 244.81 270.92 245.26 270.78 245.71 C 275.08 247.71 275.84 252.85 279.59 255.43 C 278.88 255.78 278.17 256.13 277.46 256.48 C 279.84 259.00 283.10 261.22 283.39 265.00 C 283.39 267.99 286.53 268.58 288.75 269.45 C 288.51 270.64 287.93 271.71 287.40 272.79 C 289.15 273.30 290.91 273.79 292.68 274.25 C 291.84 274.79 291.00 275.33 290.17 275.87 C 290.72 276.57 291.28 277.26 291.84 277.96 C 292.37 277.74 293.43 277.29 293.96 277.06 C 293.02 283.47 291.99 289.87 290.99 296.26 C 290.54 298.75 290.17 301.24 289.81 303.73 C 288.31 313.21 286.81 322.68 285.34 332.16 C 285.23 332.83 285.02 334.16 284.91 334.83 C 284.58 335.31 283.91 336.27 283.58 336.75 C 282.31 335.41 281.57 333.73 281.42 331.89 C 279.04 330.27 277.19 327.96 277.20 324.95 C 276.18 324.53 275.16 324.12 274.14 323.70 C 275.04 323.23 275.94 322.76 276.84 322.30 C 275.03 321.80 273.22 321.29 271.42 320.75 C 271.85 319.81 272.28 318.88 272.71 317.96 C 271.51 316.62 270.42 315.19 269.53 313.63 C 268.89 314.06 268.25 314.49 267.62 314.94 C 268.04 309.94 263.92 306.78 260.62 303.80 C 260.83 303.09 261.00 302.38 261.15 301.67 C 260.04 298.36 257.74 295.54 254.75 293.73 C 254.91 293.31 255.06 292.90 255.22 292.49 C 253.84 291.17 252.61 289.68 252.43 287.70 C 252.28 285.40 250.17 284.27 248.46 283.16 C 248.46 282.42 248.47 281.70 248.48 280.98 C 246.73 279.22 245.52 277.03 244.32 274.87 C 242.52 271.69 239.67 269.24 238.03 265.96 C 237.06 264.13 235.97 262.37 234.81 260.66 C 234.94 260.32 235.21 259.64 235.34 259.30 C 234.26 258.22 232.97 257.40 231.70 256.59 C 231.94 256.15 232.18 255.72 232.42 255.28 C 231.77 255.01 231.13 254.75 230.49 254.49 C 230.76 254.17 231.31 253.54 231.59 253.23 C 230.58 253.02 229.58 252.82 228.58 252.62 C 228.50 251.82 228.42 251.03 228.34 250.24 C 227.79 249.68 227.24 249.14 226.69 248.59 C 226.95 248.14 227.20 247.69 227.46 247.25 C 226.54 247.05 225.63 246.86 224.72 246.67 C 223.89 245.25 223.72 243.61 224.25 242.05 C 222.05 239.92 218.40 238.20 218.47 234.68 C 218.24 233.27 216.92 232.29 216.55 230.90 C 215.87 230.52 215.20 230.15 214.52 229.78 C 214.42 229.00 214.33 228.22 214.23 227.44 C 212.72 226.13 211.19 224.83 209.66 223.55 C 209.24 223.60 208.41 223.69 207.99 223.74 C 210.53 216.66 206.48 205.97 198.01 205.88 C 198.22 204.95 198.44 204.03 198.66 203.11 C 197.42 202.22 196.10 201.47 194.74 200.78 C 194.95 199.91 195.14 199.03 195.25 198.14 C 199.77 198.63 202.78 194.11 203.02 190.07 C 203.44 185.07 201.44 179.67 197.27 176.70 C 194.53 174.74 190.18 175.48 188.54 178.54 C 186.50 181.36 186.79 184.93 186.95 188.22 C 186.17 185.57 185.40 182.53 182.39 181.71 C 182.53 180.50 182.67 179.29 182.81 178.08 C 179.97 175.07 177.41 171.64 176.70 167.47 C 176.33 167.73 175.58 168.25 175.21 168.51 C 174.51 167.67 173.81 166.83 173.13 165.99 C 175.15 159.70 172.96 151.53 166.66 148.58 C 167.78 144.93 162.72 143.64 163.42 139.91 C 162.87 139.61 162.33 139.32 161.79 139.03 C 160.74 136.45 159.58 133.89 157.83 131.71 C 157.22 131.94 156.63 132.18 156.04 132.45 C 153.59 129.43 155.15 124.49 151.57 122.32 C 148.90 120.47 149.65 116.85 148.16 114.36 C 146.73 113.66 145.17 113.31 143.67 112.83 C 144.09 111.96 144.51 111.08 144.93 110.21 C 143.64 108.83 142.48 107.32 141.60 105.65 C 140.84 106.07 140.08 106.49 139.33 106.92 C 139.76 105.70 140.18 104.48 140.58 103.25 C 139.61 102.16 138.19 101.34 137.64 99.97 C 136.98 95.76 132.38 93.83 131.23 89.83 C 130.44 87.55 126.47 87.13 127.01 84.39 C 125.56 82.97 124.59 81.23 124.29 79.21 C 124.01 77.16 121.95 76.27 120.52 75.09 C 120.50 74.36 120.47 73.64 120.45 72.92 C 119.02 71.93 118.33 70.36 117.83 68.76 C 116.25 64.19 110.45 61.92 110.34 56.75 C 109.88 54.97 107.82 54.17 106.80 52.72 C 107.73 49.87 104.47 48.06 102.71 46.42 C 102.90 46.13 103.29 45.56 103.48 45.28 C 101.84 44.95 100.02 44.73 99.46 42.86 Z" />
<path fill="#1d1d1d" d=" M 59.16 50.04 C 72.59 47.62 86.03 45.24 99.46 42.86 C 100.02 44.73 101.84 44.95 103.48 45.28 C 103.29 45.56 102.90 46.13 102.71 46.42 C 104.47 48.06 107.73 49.87 106.80 52.72 C 107.82 54.17 109.88 54.97 110.34 56.75 C 110.45 61.92 116.25 64.19 117.83 68.76 C 118.33 70.36 119.02 71.93 120.45 72.92 C 120.47 73.64 120.50 74.36 120.52 75.09 C 121.95 76.27 124.01 77.16 124.29 79.21 C 124.59 81.23 125.56 82.97 127.01 84.39 C 126.47 87.13 130.44 87.55 131.23 89.83 C 132.38 93.83 136.98 95.76 137.64 99.97 C 138.19 101.34 139.61 102.16 140.58 103.25 C 140.18 104.48 139.76 105.70 139.33 106.92 C 140.08 106.49 140.84 106.07 141.60 105.65 C 142.48 107.32 143.64 108.83 144.93 110.21 C 144.51 111.08 144.09 111.96 143.67 112.83 C 145.17 113.31 146.73 113.66 148.16 114.36 C 149.65 116.85 148.90 120.47 151.57 122.32 C 155.15 124.49 153.59 129.43 156.04 132.45 C 156.63 132.18 157.22 131.94 157.83 131.71 C 159.58 133.89 160.74 136.45 161.79 139.03 C 162.33 139.32 162.87 139.61 163.42 139.91 C 162.72 143.64 167.78 144.93 166.66 148.58 C 163.09 147.56 159.65 150.15 158.61 153.49 C 156.48 159.49 158.39 167.60 164.39 170.60 C 168.06 172.37 172.00 169.51 173.13 165.99 C 173.81 166.83 174.51 167.67 175.21 168.51 C 175.58 168.25 176.33 167.73 176.70 167.47 C 177.41 171.64 179.97 175.07 182.81 178.08 C 182.67 179.29 182.53 180.50 182.39 181.71 C 185.40 182.53 186.17 185.57 186.95 188.22 C 188.01 192.54 190.67 196.96 195.25 198.14 C 195.14 199.03 194.95 199.91 194.74 200.78 C 196.10 201.47 197.42 202.22 198.66 203.11 C 198.44 204.03 198.22 204.95 198.01 205.88 C 189.42 209.15 190.77 221.97 197.19 226.83 C 200.71 230.05 206.58 228.20 207.99 223.74 C 208.41 223.69 209.24 223.60 209.66 223.55 C 211.19 224.83 212.72 226.13 214.23 227.44 C 214.33 228.22 214.42 229.00 214.52 229.78 C 215.20 230.15 215.87 230.52 216.55 230.90 C 216.92 232.29 218.24 233.27 218.47 234.68 C 218.40 238.20 222.05 239.92 224.25 242.05 C 223.72 243.61 223.89 245.25 224.72 246.67 C 225.63 246.86 226.54 247.05 227.46 247.25 C 227.20 247.69 226.95 248.14 226.69 248.59 C 227.24 249.14 227.79 249.68 228.34 250.24 C 228.42 251.03 228.50 251.82 228.58 252.62 C 229.58 252.82 230.58 253.02 231.59 253.23 C 231.31 253.54 230.76 254.17 230.49 254.49 C 231.13 254.75 231.77 255.01 232.42 255.28 C 232.18 255.72 231.94 256.15 231.70 256.59 C 232.97 257.40 234.26 258.22 235.34 259.30 C 235.21 259.64 234.94 260.32 234.81 260.66 C 235.97 262.37 237.06 264.13 238.03 265.96 C 239.67 269.24 242.52 271.69 244.32 274.87 C 245.52 277.03 246.73 279.22 248.48 280.98 C 248.47 281.70 248.46 282.42 248.46 283.16 C 250.17 284.27 252.28 285.40 252.43 287.70 C 252.61 289.68 253.84 291.17 255.22 292.49 C 255.06 292.90 254.91 293.31 254.75 293.73 C 257.74 295.54 260.04 298.36 261.15 301.67 C 261.00 302.38 260.83 303.09 260.62 303.80 C 263.92 306.78 268.04 309.94 267.62 314.94 C 268.25 314.49 268.89 314.06 269.53 313.63 C 270.42 315.19 271.51 316.62 272.71 317.96 C 272.28 318.88 271.85 319.81 271.42 320.75 C 273.22 321.29 275.03 321.80 276.84 322.30 C 275.94 322.76 275.04 323.23 274.14 323.70 C 275.16 324.12 276.18 324.53 277.20 324.95 C 277.19 327.96 279.04 330.27 281.42 331.89 C 281.57 333.73 282.31 335.41 283.58 336.75 C 283.91 336.27 284.58 335.31 284.91 334.83 C 284.71 336.27 284.55 337.74 284.35 339.19 C 282.88 348.74 281.29 358.26 279.86 367.82 C 279.46 370.24 279.14 372.67 278.81 375.11 C 278.33 378.23 277.63 381.30 277.11 384.41 C 275.99 383.11 275.54 381.51 275.48 379.84 C 274.90 379.57 274.31 379.31 273.73 379.05 C 272.27 374.39 269.10 370.57 266.21 366.74 C 265.66 365.30 265.67 363.53 264.09 362.75 C 262.02 361.48 261.41 359.13 261.23 356.88 C 260.16 356.53 259.10 356.19 258.04 355.86 C 258.94 355.37 259.85 354.88 260.76 354.40 C 259.40 353.94 258.06 353.45 256.74 352.92 C 257.23 349.54 254.75 347.20 252.60 345.03 C 252.59 342.93 251.51 341.36 249.80 340.21 C 248.79 336.23 245.05 333.93 243.38 330.31 C 242.37 328.29 240.39 327.08 238.74 325.65 C 238.87 325.20 239.00 324.76 239.15 324.32 C 237.80 323.06 236.60 321.64 236.40 319.75 C 236.21 317.46 234.17 316.26 232.49 315.07 C 232.49 314.36 232.50 313.65 232.52 312.96 C 229.81 310.67 228.95 307.04 226.73 304.37 C 225.00 301.95 222.06 300.01 222.28 296.71 C 222.29 294.44 217.14 293.65 219.44 291.41 C 218.15 290.52 216.86 289.63 215.58 288.74 C 215.86 288.24 216.14 287.75 216.42 287.26 C 215.95 287.12 215.00 286.84 214.52 286.69 C 214.84 286.24 215.16 285.79 215.48 285.35 C 214.52 285.11 213.56 284.87 212.61 284.64 C 212.53 283.12 212.07 281.69 211.01 280.58 C 211.04 280.18 211.07 279.79 211.12 279.40 C 210.38 278.90 209.65 278.40 208.91 277.92 C 208.60 276.61 208.72 275.15 208.10 273.94 C 206.14 272.13 203.75 270.70 202.46 268.28 C 202.82 267.35 203.18 266.43 203.54 265.51 C 202.86 265.42 202.18 265.34 201.50 265.26 C 201.17 264.49 200.83 263.72 200.51 262.95 C 199.84 262.56 199.19 262.17 198.53 261.78 C 198.40 260.98 198.27 260.19 198.14 259.39 C 197.33 258.79 196.53 258.19 195.72 257.60 C 195.70 256.56 195.69 255.52 195.67 254.49 C 194.77 254.40 193.88 254.32 192.98 254.24 C 193.35 253.78 194.09 252.86 194.46 252.41 C 193.32 249.69 189.85 248.80 189.65 245.50 C 189.21 245.85 188.78 246.21 188.34 246.57 C 187.97 243.17 185.45 240.83 183.55 238.22 C 182.28 236.68 182.84 234.52 182.10 232.81 C 181.30 232.07 180.46 231.38 179.59 230.74 C 187.15 225.20 184.08 211.02 175.04 208.97 C 169.61 208.61 167.21 214.59 166.98 219.12 C 166.20 218.67 165.42 218.23 164.65 217.78 C 164.94 217.16 165.24 216.54 165.55 215.93 C 163.90 213.27 160.91 211.67 159.72 208.71 C 158.13 205.17 155.58 202.21 153.22 199.18 C 153.53 198.73 154.16 197.84 154.47 197.39 C 151.45 194.91 147.35 192.22 147.55 187.84 C 146.95 187.58 146.37 187.33 145.78 187.08 C 144.30 182.70 141.53 178.91 138.64 175.36 C 137.38 174.16 138.09 171.93 136.42 171.06 C 134.35 169.74 133.37 167.48 133.31 165.10 C 132.28 164.68 131.26 164.27 130.24 163.84 C 131.03 163.37 131.83 162.92 132.65 162.48 C 131.32 161.96 130.02 161.39 128.73 160.78 C 129.80 156.15 123.94 154.51 124.01 150.16 C 123.11 149.29 121.76 148.70 121.52 147.35 C 120.55 143.91 117.15 141.98 115.68 138.80 C 114.66 136.59 112.67 135.13 110.78 133.72 C 110.97 133.22 111.17 132.72 111.37 132.23 C 109.84 130.87 108.62 129.25 108.27 127.19 C 108.12 124.24 102.76 124.01 104.79 120.65 C 102.29 120.10 102.25 117.15 101.18 115.30 C 98.70 111.78 95.02 109.00 93.64 104.79 C 93.14 103.21 91.94 102.04 90.91 100.80 C 91.81 97.92 88.65 96.17 86.86 94.54 C 87.75 91.77 84.10 90.48 82.71 88.66 C 82.98 88.17 83.26 87.68 83.54 87.19 C 82.51 87.01 81.48 86.84 80.46 86.67 C 80.54 85.20 80.63 83.73 80.71 82.26 C 79.39 81.26 78.01 80.33 76.76 79.24 C 76.32 76.88 76.81 73.20 73.42 73.13 C 73.00 71.55 72.42 70.00 70.89 69.20 C 69.12 67.96 70.98 65.23 69.12 63.98 C 68.18 62.74 66.65 62.47 65.21 62.28 C 65.75 61.33 66.96 60.27 65.90 59.19 C 64.04 57.60 62.13 56.03 61.51 53.52 C 61.20 53.77 60.58 54.28 60.27 54.54 C 59.90 53.04 59.53 51.54 59.16 50.04 Z" />
<path fill="#151515" d=" M 24.74 56.20 C 36.21 54.12 47.69 52.11 59.16 50.04 C 59.53 51.54 59.90 53.04 60.27 54.54 C 60.58 54.28 61.20 53.77 61.51 53.52 C 62.13 56.03 64.04 57.60 65.90 59.19 C 66.96 60.27 65.75 61.33 65.21 62.28 C 66.65 62.47 68.18 62.74 69.12 63.98 C 70.98 65.23 69.12 67.96 70.89 69.20 C 72.42 70.00 73.00 71.55 73.42 73.13 C 76.81 73.20 76.32 76.88 76.76 79.24 C 78.01 80.33 79.39 81.26 80.71 82.26 C 80.63 83.73 80.54 85.20 80.46 86.67 C 81.48 86.84 82.51 87.01 83.54 87.19 C 83.26 87.68 82.98 88.17 82.71 88.66 C 84.10 90.48 87.75 91.77 86.86 94.54 C 88.65 96.17 91.81 97.92 90.91 100.80 C 91.94 102.04 93.14 103.21 93.64 104.79 C 95.02 109.00 98.70 111.78 101.18 115.30 C 102.25 117.15 102.29 120.10 104.79 120.65 C 102.76 124.01 108.12 124.24 108.27 127.19 C 108.62 129.25 109.84 130.87 111.37 132.23 C 111.17 132.72 110.97 133.22 110.78 133.72 C 112.67 135.13 114.66 136.59 115.68 138.80 C 117.15 141.98 120.55 143.91 121.52 147.35 C 121.76 148.70 123.11 149.29 124.01 150.16 C 123.94 154.51 129.80 156.15 128.73 160.78 C 130.02 161.39 131.32 161.96 132.65 162.48 C 131.83 162.92 131.03 163.37 130.24 163.84 C 131.26 164.27 132.28 164.68 133.31 165.10 C 133.37 167.48 134.35 169.74 136.42 171.06 C 138.09 171.93 137.38 174.16 138.64 175.36 C 141.53 178.91 144.30 182.70 145.78 187.08 C 146.37 187.33 146.95 187.58 147.55 187.84 C 147.35 192.22 151.45 194.91 154.47 197.39 C 154.16 197.84 153.53 198.73 153.22 199.18 C 155.58 202.21 158.13 205.17 159.72 208.71 C 160.91 211.67 163.90 213.27 165.55 215.93 C 165.24 216.54 164.94 217.16 164.65 217.78 C 165.42 218.23 166.20 218.67 166.98 219.12 C 167.61 223.09 168.81 227.34 172.24 229.82 C 174.26 231.59 177.17 231.57 179.59 230.74 C 180.46 231.38 181.30 232.07 182.10 232.81 C 182.84 234.52 182.28 236.68 183.55 238.22 C 185.45 240.83 187.97 243.17 188.34 246.57 C 188.78 246.21 189.21 245.85 189.65 245.50 C 189.85 248.80 193.32 249.69 194.46 252.41 C 194.09 252.86 193.35 253.78 192.98 254.24 C 193.88 254.32 194.77 254.40 195.67 254.49 C 195.69 255.52 195.70 256.56 195.72 257.60 C 196.53 258.19 197.33 258.79 198.14 259.39 C 198.27 260.19 198.40 260.98 198.53 261.78 C 199.19 262.17 199.84 262.56 200.51 262.95 C 200.83 263.72 201.17 264.49 201.50 265.26 C 202.18 265.34 202.86 265.42 203.54 265.51 C 203.18 266.43 202.82 267.35 202.46 268.28 C 203.75 270.70 206.14 272.13 208.10 273.94 C 208.72 275.15 208.60 276.61 208.91 277.92 C 209.65 278.40 210.38 278.90 211.12 279.40 C 211.07 279.79 211.04 280.18 211.01 280.58 C 212.07 281.69 212.53 283.12 212.61 284.64 C 213.56 284.87 214.52 285.11 215.48 285.35 C 215.16 285.79 214.84 286.24 214.52 286.69 C 215.00 286.84 215.95 287.12 216.42 287.26 C 216.14 287.75 215.86 288.24 215.58 288.74 C 216.86 289.63 218.15 290.52 219.44 291.41 C 217.14 293.65 222.29 294.44 222.28 296.71 C 222.06 300.01 225.00 301.95 226.73 304.37 C 228.95 307.04 229.81 310.67 232.52 312.96 C 232.50 313.65 232.49 314.36 232.49 315.07 C 234.17 316.26 236.21 317.46 236.40 319.75 C 236.60 321.64 237.80 323.06 239.15 324.32 C 239.00 324.76 238.87 325.20 238.74 325.65 C 240.39 327.08 242.37 328.29 243.38 330.31 C 245.05 333.93 248.79 336.23 249.80 340.21 C 251.51 341.36 252.59 342.93 252.60 345.03 C 254.75 347.20 257.23 349.54 256.74 352.92 C 258.06 353.45 259.40 353.94 260.76 354.40 C 259.85 354.88 258.94 355.37 258.04 355.86 C 259.10 356.19 260.16 356.53 261.23 356.88 C 261.41 359.13 262.02 361.48 264.09 362.75 C 265.67 363.53 265.66 365.30 266.21 366.74 C 269.10 370.57 272.27 374.39 273.73 379.05 C 274.31 379.31 274.90 379.57 275.48 379.84 C 275.54 381.51 275.99 383.11 277.11 384.41 C 275.41 400.37 271.97 416.11 269.96 432.04 C 269.43 432.28 268.38 432.77 267.85 433.01 C 266.33 431.68 265.66 429.86 265.38 427.93 C 263.07 426.19 261.07 423.97 261.14 420.89 C 260.27 420.59 259.40 420.30 258.53 420.02 C 258.74 419.59 259.15 418.73 259.36 418.30 C 258.07 417.72 256.78 417.14 255.49 416.58 C 255.96 415.59 256.43 414.61 256.91 413.64 C 255.37 412.66 253.33 412.49 252.04 411.15 C 251.22 409.13 251.24 406.77 249.86 404.99 C 248.38 403.02 246.34 401.58 244.59 399.87 C 244.79 399.09 244.99 398.32 245.20 397.56 C 244.05 394.98 242.57 392.50 240.27 390.78 C 237.44 388.77 237.11 385.10 235.85 382.13 C 235.08 380.01 231.97 379.96 231.51 377.68 C 230.46 372.95 226.93 369.56 224.44 365.60 C 222.23 362.87 220.85 359.60 218.86 356.73 C 218.97 356.38 219.18 355.67 219.29 355.31 C 218.06 354.43 216.83 353.56 215.59 352.71 C 215.87 352.26 216.14 351.80 216.42 351.35 C 215.77 351.06 215.13 350.77 214.48 350.49 C 214.77 350.20 215.33 349.61 215.62 349.32 C 214.53 349.05 213.45 348.79 212.37 348.53 C 210.83 344.47 208.18 340.88 205.06 337.91 C 204.41 335.78 203.76 333.63 202.27 331.91 C 202.69 331.07 203.12 330.24 203.56 329.41 C 202.83 329.37 202.10 329.33 201.38 329.30 C 200.98 328.17 200.59 327.04 200.19 325.92 C 199.63 325.67 199.08 325.43 198.52 325.19 C 198.40 324.58 198.29 323.99 198.17 323.39 C 195.58 321.51 193.07 319.25 191.82 316.23 C 191.22 313.96 190.72 311.66 189.74 309.52 C 189.24 309.84 188.75 310.15 188.26 310.47 C 187.51 306.47 183.97 303.94 182.71 300.17 C 182.19 298.22 180.07 297.69 178.57 296.71 C 179.00 296.05 179.43 295.40 179.87 294.75 C 179.21 294.56 178.55 294.38 177.90 294.21 C 176.22 288.26 172.62 282.95 168.45 278.49 C 166.44 277.54 165.61 275.48 166.05 273.37 C 163.59 270.60 162.27 266.94 159.19 264.75 C 157.44 261.11 153.97 258.46 153.02 254.45 C 152.54 253.60 151.43 253.31 150.70 252.71 C 150.84 252.27 150.98 251.83 151.12 251.39 C 149.45 249.42 149.05 246.68 147.10 244.92 C 143.94 241.87 142.30 237.71 139.61 234.29 C 138.34 232.77 138.83 230.64 137.98 228.98 C 135.14 226.53 131.42 223.96 131.46 219.80 C 130.88 219.53 130.30 219.26 129.72 219.00 C 128.25 214.63 125.53 210.84 122.60 207.34 C 121.75 206.39 121.74 205.04 121.28 203.91 C 120.31 202.79 119.00 201.99 118.14 200.78 C 117.04 199.00 117.54 196.62 116.31 194.91 C 113.61 192.08 112.23 188.22 109.21 185.65 C 108.08 184.86 108.65 183.25 107.89 182.24 C 107.08 181.29 105.77 180.68 105.48 179.38 C 104.45 175.91 101.07 173.94 99.64 170.69 C 98.63 168.54 96.68 167.11 94.85 165.69 C 94.96 165.17 95.07 164.65 95.18 164.13 C 93.68 162.83 92.57 161.23 92.31 159.23 C 92.08 157.10 90.01 156.15 88.40 155.17 C 88.43 154.44 88.48 153.71 88.52 152.99 C 86.58 151.66 86.06 149.37 85.21 147.33 C 83.44 144.52 80.10 142.58 79.58 139.08 C 79.34 136.15 76.51 134.71 74.74 132.72 C 74.90 132.25 75.07 131.79 75.24 131.33 C 74.18 129.41 72.65 127.84 70.87 126.58 C 70.97 126.01 71.08 125.44 71.20 124.88 C 70.16 123.01 68.26 121.93 66.66 120.62 C 67.03 120.00 67.41 119.38 67.78 118.77 C 67.14 118.52 66.51 118.26 65.87 118.01 C 65.46 115.43 64.17 113.30 61.78 112.11 C 59.73 111.17 60.70 108.73 60.11 107.02 C 58.80 104.61 56.79 102.67 54.61 101.06 C 53.40 99.60 54.84 97.17 53.03 95.99 C 52.10 94.79 50.61 94.49 49.19 94.30 C 49.64 93.55 50.09 92.79 50.55 92.04 C 48.86 89.82 45.98 88.58 45.63 85.48 C 45.21 85.81 44.79 86.14 44.37 86.48 C 43.90 84.55 43.25 82.63 41.83 81.19 C 39.68 78.99 38.78 76.00 36.90 73.62 C 37.59 72.05 36.56 70.63 35.46 69.60 C 32.07 66.37 30.44 61.88 27.65 58.19 C 27.07 57.07 25.83 56.67 24.74 56.20 Z" />
<path fill="#0d0d0d" d=" M 0.00 60.31 C 8.32 59.43 16.49 57.54 24.74 56.20 C 25.83 56.67 27.07 57.07 27.65 58.19 C 30.44 61.88 32.07 66.37 35.46 69.60 C 36.56 70.63 37.59 72.05 36.90 73.62 C 38.78 76.00 39.68 78.99 41.83 81.19 C 43.25 82.63 43.90 84.55 44.37 86.48 C 44.79 86.14 45.21 85.81 45.63 85.48 C 45.98 88.58 48.86 89.82 50.55 92.04 C 50.09 92.79 49.64 93.55 49.19 94.30 C 50.61 94.49 52.10 94.79 53.03 95.99 C 54.84 97.17 53.40 99.60 54.61 101.06 C 56.79 102.67 58.80 104.61 60.11 107.02 C 60.70 108.73 59.73 111.17 61.78 112.11 C 64.17 113.30 65.46 115.43 65.87 118.01 C 66.51 118.26 67.14 118.52 67.78 118.77 C 67.41 119.38 67.03 120.00 66.66 120.62 C 68.26 121.93 70.16 123.01 71.20 124.88 C 71.08 125.44 70.97 126.01 70.87 126.58 C 72.65 127.84 74.18 129.41 75.24 131.33 C 75.07 131.79 74.90 132.25 74.74 132.72 C 76.51 134.71 79.34 136.15 79.58 139.08 C 80.10 142.58 83.44 144.52 85.21 147.33 C 86.06 149.37 86.58 151.66 88.52 152.99 C 88.48 153.71 88.43 154.44 88.40 155.17 C 90.01 156.15 92.08 157.10 92.31 159.23 C 92.57 161.23 93.68 162.83 95.18 164.13 C 95.07 164.65 94.96 165.17 94.85 165.69 C 96.68 167.11 98.63 168.54 99.64 170.69 C 101.07 173.94 104.45 175.91 105.48 179.38 C 105.77 180.68 107.08 181.29 107.89 182.24 C 108.65 183.25 108.08 184.86 109.21 185.65 C 112.23 188.22 113.61 192.08 116.31 194.91 C 117.54 196.62 117.04 199.00 118.14 200.78 C 119.00 201.99 120.31 202.79 121.28 203.91 C 121.74 205.04 121.75 206.39 122.60 207.34 C 125.53 210.84 128.25 214.63 129.72 219.00 C 130.30 219.26 130.88 219.53 131.46 219.80 C 131.42 223.96 135.14 226.53 137.98 228.98 C 138.83 230.64 138.34 232.77 139.61 234.29 C 142.30 237.71 143.94 241.87 147.10 244.92 C 149.05 246.68 149.45 249.42 151.12 251.39 C 150.98 251.83 150.84 252.27 150.70 252.71 C 151.43 253.31 152.54 253.60 153.02 254.45 C 153.97 258.46 157.44 261.11 159.19 264.75 C 162.27 266.94 163.59 270.60 166.05 273.37 C 165.61 275.48 166.44 277.54 168.45 278.49 C 172.62 282.95 176.22 288.26 177.90 294.21 C 178.55 294.38 179.21 294.56 179.87 294.75 C 179.43 295.40 179.00 296.05 178.57 296.71 C 180.07 297.69 182.19 298.22 182.71 300.17 C 183.97 303.94 187.51 306.47 188.26 310.47 C 188.75 310.15 189.24 309.84 189.74 309.52 C 190.72 311.66 191.22 313.96 191.82 316.23 C 193.07 319.25 195.58 321.51 198.17 323.39 C 198.29 323.99 198.40 324.58 198.52 325.19 C 199.08 325.43 199.63 325.67 200.19 325.92 C 200.59 327.04 200.98 328.17 201.38 329.30 C 202.10 329.33 202.83 329.37 203.56 329.41 C 203.12 330.24 202.69 331.07 202.27 331.91 C 203.76 333.63 204.41 335.78 205.06 337.91 C 208.18 340.88 210.83 344.47 212.37 348.53 C 213.45 348.79 214.53 349.05 215.62 349.32 C 215.33 349.61 214.77 350.20 214.48 350.49 C 215.13 350.77 215.77 351.06 216.42 351.35 C 216.14 351.80 215.87 352.26 215.59 352.71 C 216.83 353.56 218.06 354.43 219.29 355.31 C 219.18 355.67 218.97 356.38 218.86 356.73 C 220.85 359.60 222.23 362.87 224.44 365.60 C 226.93 369.56 230.46 372.95 231.51 377.68 C 231.97 379.96 235.08 380.01 235.85 382.13 C 237.11 385.10 237.44 388.77 240.27 390.78 C 242.57 392.50 244.05 394.98 245.20 397.56 C 244.99 398.32 244.79 399.09 244.59 399.87 C 246.34 401.58 248.38 403.02 249.86 404.99 C 251.24 406.77 251.22 409.13 252.04 411.15 C 253.33 412.49 255.37 412.66 256.91 413.64 C 256.43 414.61 255.96 415.59 255.49 416.58 C 256.78 417.14 258.07 417.72 259.36 418.30 C 259.15 418.73 258.74 419.59 258.53 420.02 C 259.40 420.30 260.27 420.59 261.14 420.89 C 261.07 423.97 263.07 426.19 265.38 427.93 C 265.66 429.86 266.33 431.68 267.85 433.01 C 268.38 432.77 269.43 432.28 269.96 432.04 C 267.22 451.39 263.70 470.61 260.99 489.96 C 260.05 490.63 259.10 491.28 258.12 491.89 C 257.36 490.51 257.04 488.96 256.66 487.46 C 256.04 487.86 255.42 488.28 254.80 488.69 C 254.34 487.06 254.39 485.37 254.20 483.71 C 253.40 483.15 252.79 484.24 252.11 484.51 C 250.31 481.79 250.36 478.46 249.32 475.47 C 248.19 474.99 246.84 474.82 245.91 474.01 C 244.85 470.26 242.36 466.99 239.58 464.35 C 239.96 463.58 240.33 462.81 240.72 462.05 C 239.55 460.67 238.50 459.21 237.56 457.68 C 236.92 458.07 236.29 458.47 235.67 458.88 C 236.06 454.05 232.07 451.00 228.91 448.10 C 227.02 446.54 227.88 443.90 227.44 441.80 C 226.11 440.18 224.33 439.00 222.81 437.57 C 222.92 437.26 223.13 436.64 223.23 436.32 C 219.96 434.71 221.28 430.32 218.41 428.50 C 216.78 427.18 214.83 426.08 213.83 424.16 C 213.08 422.15 213.28 419.80 211.92 418.03 C 210.17 415.09 206.79 412.97 206.43 409.34 C 206.29 407.19 204.02 406.28 202.73 404.85 C 202.88 404.47 203.17 403.71 203.32 403.33 C 202.08 402.44 200.83 401.57 199.58 400.71 C 199.88 400.21 200.18 399.71 200.49 399.21 C 200.00 399.09 199.02 398.84 198.53 398.71 C 198.83 398.25 199.14 397.79 199.44 397.33 C 198.49 397.06 197.54 396.80 196.59 396.54 C 196.64 394.92 196.00 393.53 194.78 392.48 C 194.97 392.19 195.36 391.61 195.55 391.31 C 192.62 391.44 190.97 388.53 192.38 386.07 C 189.89 383.88 185.93 381.85 186.47 377.95 C 185.06 377.08 184.84 375.35 184.29 373.93 C 183.71 373.68 183.13 373.43 182.56 373.18 C 182.32 370.35 179.03 369.49 177.69 367.26 C 174.96 364.65 175.48 360.60 173.78 357.46 C 173.30 357.78 172.82 358.12 172.35 358.46 C 171.91 354.62 168.63 352.25 167.05 348.95 C 166.22 347.01 164.33 345.95 162.75 344.71 C 163.06 344.03 163.37 343.35 163.68 342.68 C 163.06 342.46 162.45 342.25 161.83 342.05 C 160.94 339.18 159.97 336.30 158.15 333.87 C 155.82 330.74 154.01 326.93 150.40 325.06 C 150.52 324.06 150.64 323.06 150.77 322.07 C 147.96 318.98 145.40 315.53 144.63 311.32 C 144.13 312.14 143.63 312.96 143.13 313.78 C 142.00 311.28 143.14 308.06 140.92 306.08 C 138.83 303.75 137.12 301.13 135.53 298.44 C 133.70 295.35 130.42 293.32 129.12 289.89 C 126.80 286.76 123.86 283.80 123.16 279.81 C 122.68 276.15 118.66 275.00 116.89 272.14 C 114.97 270.22 115.84 267.37 115.34 264.97 C 114.62 265.50 113.91 266.04 113.20 266.59 C 113.26 265.52 113.32 264.46 113.37 263.40 C 110.45 262.26 110.11 258.98 108.14 256.93 C 107.50 258.04 106.89 259.17 106.29 260.32 C 73.76 199.25 41.37 138.12 8.83 77.07 C 5.52 72.13 3.98 66.01 0.00 61.59 L 0.00 60.31 Z" />
<path fill="#000000" d=" M 318.64 117.84 C 321.55 98.64 324.59 79.46 327.53 60.27 C 352.68 60.06 377.80 60.76 402.96 60.55 C 437.56 60.55 472.17 60.55 506.77 60.55 C 506.52 61.06 506.00 62.08 505.75 62.59 C 421.70 220.81 337.53 378.96 253.52 537.20 C 253.26 536.74 252.74 535.82 252.49 535.36 C 253.58 531.80 254.97 528.31 255.55 524.62 C 257.40 513.07 259.33 501.54 260.99 489.96 C 263.70 470.61 267.22 451.39 269.96 432.04 C 271.97 416.11 275.41 400.37 277.11 384.41 C 277.63 381.30 278.33 378.23 278.81 375.11 C 280.17 375.04 281.53 374.98 282.90 374.91 C 283.06 372.63 283.06 370.34 282.92 368.07 C 282.15 368.01 280.62 367.88 279.86 367.82 C 281.29 358.26 282.88 348.74 284.35 339.19 C 289.49 339.33 294.64 339.21 299.78 339.26 C 300.71 339.26 302.55 339.26 303.47 339.26 C 303.53 336.86 303.53 334.47 303.43 332.08 L 301.67 332.07 C 296.22 332.15 290.78 332.13 285.34 332.16 C 286.81 322.68 288.31 313.21 289.81 303.73 C 295.91 303.44 302.02 303.70 308.13 303.57 C 312.30 303.50 316.47 303.57 320.65 303.53 C 320.69 301.16 320.69 298.79 320.65 296.43 C 317.07 296.39 313.49 296.44 309.91 296.41 C 303.60 296.31 297.29 296.50 290.99 296.26 C 291.99 289.87 293.02 283.47 293.96 277.06 C 294.37 274.03 294.83 271.01 295.32 268.00 C 297.11 267.89 298.91 267.77 300.71 267.62 C 300.84 265.50 300.84 263.37 300.68 261.26 C 299.21 260.74 297.07 260.97 296.61 259.09 C 298.21 250.11 299.50 241.08 300.94 232.07 C 308.88 232.03 316.83 232.10 324.77 232.07 C 336.05 232.02 347.34 232.24 358.61 231.96 C 358.60 229.66 358.61 227.37 358.63 225.07 C 347.86 224.87 337.09 224.96 326.33 225.03 C 318.20 224.98 310.08 224.90 301.96 225.02 C 303.51 215.37 304.87 205.69 306.56 196.06 C 314.42 196.55 322.34 196.48 330.21 196.12 C 330.48 193.86 331.02 191.38 329.94 189.26 C 322.49 189.06 315.03 189.53 307.59 189.03 C 309.00 179.61 310.54 170.21 311.95 160.79 C 321.80 160.47 331.66 160.73 341.52 160.66 C 358.94 160.59 376.35 160.66 393.77 160.63 C 393.80 158.29 393.81 155.96 393.83 153.63 C 376.93 153.38 360.02 153.56 343.12 153.53 C 333.10 153.74 323.08 153.38 313.06 153.74 C 314.54 144.10 315.98 134.45 317.56 124.83 C 328.29 124.98 339.02 124.89 349.75 124.90 C 353.37 124.89 356.99 124.95 360.62 124.87 C 360.63 122.60 360.61 120.33 360.66 118.07 C 357.61 117.44 354.46 117.93 351.37 117.82 C 340.46 117.81 329.55 117.74 318.64 117.84 Z" />
<path fill="#e4e4e4" d=" M 505.75 62.59 C 506.70 63.13 507.66 63.66 508.63 64.19 C 507.21 68.62 504.33 72.36 502.46 76.59 C 428.20 216.29 353.93 355.95 279.70 495.67 C 271.86 509.93 264.70 524.57 256.63 538.69 C 255.30 539.04 254.19 538.31 253.52 537.20 C 337.53 378.96 421.70 220.81 505.75 62.59 Z" />
<path fill="#00242a" d=" M 318.64 117.84 C 329.55 117.74 340.46 117.81 351.37 117.82 C 350.90 120.19 350.32 122.54 349.75 124.90 C 339.02 124.89 328.29 124.98 317.56 124.83 C 317.92 122.50 318.28 120.17 318.64 117.84 Z" />
<path fill="#0193ab" d=" M 351.37 117.82 C 354.46 117.93 357.61 117.44 360.66 118.07 C 360.61 120.33 360.63 122.60 360.62 124.87 C 356.99 124.95 353.37 124.89 349.75 124.90 C 350.32 122.54 350.90 120.19 351.37 117.82 Z" />
<path fill="#0193ab" d=" M 374.85 117.81 C 386.98 117.74 399.11 117.85 411.24 117.75 C 412.04 119.96 411.35 122.48 411.61 124.81 C 399.36 125.02 387.10 124.86 374.85 124.89 C 374.82 122.53 374.82 120.17 374.85 117.81 Z" />
<path fill="#01adca" d=" M 206.06 145.36 C 207.27 143.69 208.70 141.67 211.02 141.70 C 215.69 141.42 218.81 145.94 220.09 149.90 C 221.61 153.75 221.32 158.16 219.27 161.77 C 217.26 164.70 212.93 165.08 210.29 162.78 C 205.37 158.69 203.61 151.26 206.06 145.36 Z" />
<path fill="#005665" d=" M 186.37 145.41 C 188.11 144.37 190.13 145.31 191.69 146.24 C 196.31 149.48 197.97 155.65 197.08 161.03 C 196.61 164.32 194.03 167.82 190.40 167.61 C 185.26 167.02 182.25 161.62 181.73 156.93 C 181.14 152.71 182.00 147.29 186.37 145.41 Z" />
<path fill="#01d8fc" d=" M 158.61 153.49 C 159.65 150.15 163.09 147.56 166.66 148.58 C 172.96 151.53 175.15 159.70 173.13 165.99 C 172.00 169.51 168.06 172.37 164.39 170.60 C 158.39 167.60 156.48 159.49 158.61 153.49 Z" />
<path fill="#00242a" d=" M 313.06 153.74 C 323.08 153.38 333.10 153.74 343.12 153.53 C 342.53 155.89 341.98 158.27 341.52 160.66 C 331.66 160.73 321.80 160.47 311.95 160.79 C 312.30 158.44 312.68 156.09 313.06 153.74 Z" />
<path fill="#0193ab" d=" M 343.12 153.53 C 360.02 153.56 376.93 153.38 393.83 153.63 C 393.81 155.96 393.80 158.29 393.77 160.63 C 376.35 160.66 358.94 160.59 341.52 160.66 C 341.98 158.27 342.53 155.89 343.12 153.53 Z" />
<path fill="#005665" d=" M 216.33 172.43 C 218.59 171.79 220.91 173.03 222.60 174.46 C 226.71 178.28 228.21 184.52 226.74 189.87 C 225.79 193.07 222.40 196.04 218.92 194.77 C 213.75 192.95 211.05 187.14 210.91 181.96 C 210.75 178.21 212.25 173.44 216.33 172.43 Z" />
<path fill="#01c3e3" d=" M 188.54 178.54 C 190.18 175.48 194.53 174.74 197.27 176.70 C 201.44 179.67 203.44 185.07 203.02 190.07 C 202.78 194.11 199.77 198.63 195.25 198.14 C 190.67 196.96 188.01 192.54 186.95 188.22 C 186.79 184.93 186.50 181.36 188.54 178.54 Z" />
<path fill="#01d8fc" d=" M 167.08 179.19 C 171.38 177.15 175.76 180.90 177.40 184.71 C 179.78 189.75 179.77 197.21 174.64 200.55 C 170.22 202.99 165.41 199.14 163.79 195.08 C 161.45 189.95 161.70 182.29 167.08 179.19 Z" />
<path fill="#00242a" d=" M 306.56 196.06 C 306.90 193.71 307.22 191.37 307.59 189.03 C 315.03 189.53 322.49 189.06 329.94 189.26 C 331.02 191.38 330.48 193.86 330.21 196.12 C 322.34 196.48 314.42 196.55 306.56 196.06 Z" />
<path fill="#0193ab" d=" M 348.69 189.21 C 357.72 189.30 366.75 189.21 375.78 189.26 C 375.79 191.60 375.78 193.95 375.79 196.30 C 366.71 196.43 357.63 196.33 348.55 196.35 C 348.59 193.97 348.32 191.57 348.69 189.21 Z" />
<path fill="#01d8fc" d=" M 221.28 203.30 C 225.73 201.41 230.12 205.21 231.98 209.02 C 234.53 213.94 234.98 221.38 229.99 224.94 C 225.21 227.71 219.96 223.35 218.16 218.98 C 215.84 213.96 215.78 206.24 221.28 203.30 Z" />
<path fill="#0198b1" d=" M 197.19 226.83 C 190.77 221.97 189.42 209.15 198.01 205.88 C 206.48 205.97 210.53 216.66 207.99 223.74 C 206.58 228.20 200.71 230.05 197.19 226.83 Z" />
<path fill="#018da4" d=" M 166.98 219.12 C 167.21 214.59 169.61 208.61 175.04 208.97 C 184.08 211.02 187.15 225.20 179.59 230.74 C 177.17 231.57 174.26 231.59 172.24 229.82 C 168.81 227.34 167.61 223.09 166.98 219.12 Z" />
<path fill="#00242a" d=" M 301.96 225.02 C 310.08 224.90 318.20 224.98 326.33 225.03 C 325.91 227.40 325.38 229.74 324.77 232.07 C 316.83 232.10 308.88 232.03 300.94 232.07 L 301.07 231.14 C 301.33 229.09 301.63 227.05 301.96 225.02 Z" />
<path fill="#0193ab" d=" M 326.33 225.03 C 337.09 224.96 347.86 224.87 358.63 225.07 C 358.61 227.37 358.60 229.66 358.61 231.96 C 347.34 232.24 336.05 232.02 324.77 232.07 C 325.38 229.74 325.91 227.40 326.33 225.03 Z" />
<path fill="#01d8fc" d=" M 202.49 236.61 C 207.63 235.03 212.12 239.74 213.66 244.21 C 215.54 249.08 214.99 256.24 209.68 258.68 C 204.34 260.60 199.48 255.69 198.02 250.95 C 196.25 246.01 197.04 238.81 202.49 236.61 Z" />
<path fill="#060606" d=" M 106.29 260.32 C 106.89 259.17 107.50 258.04 108.14 256.93 C 110.11 258.98 110.45 262.26 113.37 263.40 C 113.32 264.46 113.26 265.52 113.20 266.59 C 113.91 266.04 114.62 265.50 115.34 264.97 C 115.84 267.37 114.97 270.22 116.89 272.14 C 118.66 275.00 122.68 276.15 123.16 279.81 C 123.86 283.80 126.80 286.76 129.12 289.89 C 130.42 293.32 133.70 295.35 135.53 298.44 C 137.12 301.13 138.83 303.75 140.92 306.08 C 143.14 308.06 142.00 311.28 143.13 313.78 C 143.63 312.96 144.13 312.14 144.63 311.32 C 145.40 315.53 147.96 318.98 150.77 322.07 C 150.64 323.06 150.52 324.06 150.40 325.06 C 154.01 326.93 155.82 330.74 158.15 333.87 C 159.97 336.30 160.94 339.18 161.83 342.05 C 162.45 342.25 163.06 342.46 163.68 342.68 C 163.37 343.35 163.06 344.03 162.75 344.71 C 164.33 345.95 166.22 347.01 167.05 348.95 C 168.63 352.25 171.91 354.62 172.35 358.46 C 172.82 358.12 173.30 357.78 173.78 357.46 C 175.48 360.60 174.96 364.65 177.69 367.26 C 179.03 369.49 182.32 370.35 182.56 373.18 C 183.13 373.43 183.71 373.68 184.29 373.93 C 184.84 375.35 185.06 377.08 186.47 377.95 C 185.93 381.85 189.89 383.88 192.38 386.07 C 190.97 388.53 192.62 391.44 195.55 391.31 C 195.36 391.61 194.97 392.19 194.78 392.48 C 196.00 393.53 196.64 394.92 196.59 396.54 C 197.54 396.80 198.49 397.06 199.44 397.33 C 199.14 397.79 198.83 398.25 198.53 398.71 C 199.02 398.84 200.00 399.09 200.49 399.21 C 200.18 399.71 199.88 400.21 199.58 400.71 C 200.83 401.57 202.08 402.44 203.32 403.33 C 203.17 403.71 202.88 404.47 202.73 404.85 C 204.02 406.28 206.29 407.19 206.43 409.34 C 206.79 412.97 210.17 415.09 211.92 418.03 C 213.28 419.80 213.08 422.15 213.83 424.16 C 214.83 426.08 216.78 427.18 218.41 428.50 C 221.28 430.32 219.96 434.71 223.23 436.32 C 223.13 436.64 222.92 437.26 222.81 437.57 C 224.33 439.00 226.11 440.18 227.44 441.80 C 227.88 443.90 227.02 446.54 228.91 448.10 C 232.07 451.00 236.06 454.05 235.67 458.88 C 236.29 458.47 236.92 458.07 237.56 457.68 C 238.50 459.21 239.55 460.67 240.72 462.05 C 240.33 462.81 239.96 463.58 239.58 464.35 C 242.36 466.99 244.85 470.26 245.91 474.01 C 246.84 474.82 248.19 474.99 249.32 475.47 C 250.36 478.46 250.31 481.79 252.11 484.51 C 252.79 484.24 253.40 483.15 254.20 483.71 C 254.39 485.37 254.34 487.06 254.80 488.69 C 255.42 488.28 256.04 487.86 256.66 487.46 C 257.04 488.96 257.36 490.51 258.12 491.89 C 259.10 491.28 260.05 490.63 260.99 489.96 C 259.33 501.54 257.40 513.07 255.55 524.62 C 254.97 528.31 253.58 531.80 252.49 535.36 C 224.06 481.89 195.65 428.43 167.23 374.97 C 165.95 372.43 164.64 369.90 163.25 367.43 C 144.22 331.75 125.28 296.02 106.29 260.32 Z" />
<path fill="#00242a" d=" M 295.32 268.00 C 295.76 265.03 296.13 262.05 296.61 259.09 C 297.07 260.97 299.21 260.74 300.68 261.26 C 300.84 263.37 300.84 265.50 300.71 267.62 C 298.91 267.77 297.11 267.89 295.32 268.00 Z" />
<path fill="#0193ab" d=" M 318.28 261.02 C 326.04 260.27 334.11 260.89 341.99 260.71 C 342.01 263.08 342.02 265.45 341.97 267.82 C 334.08 267.78 326.19 267.85 318.30 267.78 C 318.29 265.53 318.32 263.27 318.28 261.02 Z" />
<path fill="#00242a" d=" M 290.99 296.26 C 297.29 296.50 303.60 296.31 309.91 296.41 C 309.23 298.77 308.73 301.18 308.13 303.57 C 302.02 303.70 295.91 303.44 289.81 303.73 C 290.17 301.24 290.54 298.75 290.99 296.26 Z" />
<path fill="#0193ab" d=" M 309.91 296.41 C 313.49 296.44 317.07 296.39 320.65 296.43 C 320.69 298.79 320.69 301.16 320.65 303.53 C 316.47 303.57 312.30 303.50 308.13 303.57 C 308.73 301.18 309.23 298.77 309.91 296.41 Z" />
<path fill="#00242a" d=" M 285.34 332.16 C 290.78 332.13 296.22 332.15 301.67 332.07 C 300.82 334.40 300.42 336.86 299.78 339.26 C 294.64 339.21 289.49 339.33 284.35 339.19 C 284.55 337.74 284.71 336.27 284.91 334.83 C 285.02 334.16 285.23 332.83 285.34 332.16 Z" />
<path fill="#0190a7" d=" M 301.67 332.07 L 303.43 332.08 C 303.53 334.47 303.53 336.86 303.47 339.26 C 302.55 339.26 300.71 339.26 299.78 339.26 C 300.42 336.86 300.82 334.40 301.67 332.07 Z" />
<path fill="#53e5fd" d=" M 161.54 375.00 C 162.02 372.55 159.97 368.30 163.25 367.43 C 164.64 369.90 165.95 372.43 167.23 374.97 C 165.33 374.99 163.43 375.00 161.54 375.00 Z" />
<path fill="#00242a" d=" M 279.86 367.82 C 280.62 367.88 282.15 368.01 282.92 368.07 C 283.06 370.34 283.06 372.63 282.90 374.91 C 281.53 374.98 280.17 375.04 278.81 375.11 C 279.14 372.67 279.46 370.24 279.86 367.82 Z" />
</svg>
