<?xml version="1.0" encoding="utf-8"?>
<svg version="1.1" id="Layer_1" xmlns="http://www.w3.org/2000/svg" xmlns:xlink="http://www.w3.org/1999/xlink" x="0px" y="0px"
	 viewBox="0 0 612 792" style="enable-background:new 0 0 612 792;" xml:space="preserve">
<style type="text/css">
	.st0{fill:#EA5548;}
	.st1{fill:#F9E1B3;}
	.st2{fill:#DC493C;}
	.st3{fill:#A7A6A6;}
	.st4{fill:#DADADA;}
	.st5{fill:#DFBC8C;}
	.st6{fill:#6F6463;}
	.st7{fill:#65221B;}
	.st8{fill:#737373;}
	.st9{fill:#FFFFFF;}
	.st10{fill:#B19162;}
	.st11{fill:#040505;}
</style>
<g id="XMLID_2_">
	<path id="XMLID_15_" class="st0" d="M521.5,836c-1.8,1.8-3.7,3.2-5.8,4.3c-1.5,0-3,0.1-4.5,0.1c-116.7,0-233.4,0-350.1,0
		c-1.5,0-3-0.1-4.5-0.1c-9.3-8.5-19.2-16.2-29-23.9l0,0c-0.4-0.3-0.7-0.6-1.1-0.9l0,0c-0.3-0.3-0.6-0.5-0.9-0.8
		c-13.3-11-26.6-22.1-40-33c-24.8-20.4-49.6-40.7-74.4-61c-27.1-22.3-54.3-44.4-81.3-66.8c-24.9-20.7-50.2-40.7-76.3-59.8
		c-1.9-1.4-4-3.1-1.5-5.8c2,0.1,4,0.2,6,0.2c93.3,0,186.5,0,279.8,0c2,0,4-0.2,6-0.3c4.5,0,9.1,0,13.6,0c5,0,10,0.1,15.1,0.1
		c1.3,0.1,2.7,0.2,4,0.2c107.4,0,214.8,0,322.2,0c1.7,0,3.3-0.2,5-0.3c4.2,0.1,8.5,0.2,12.7,0.3c83.3,0,166.7,0,250,0"/>
	<path id="XMLID_172_" class="st0" d="M-71.3,91.6c19.7-17,39.4-33.9,59-50.9C41.2-5.5,94.5-51.8,147.8-98.1
		c2.2-1.9,4.5-2.4,7.3-2.4c147,0,294,0.1,440.9-0.1c4.5,0,5.5,1.2,5.5,5.6c-0.1,82.3-0.1,164.6-0.1,247c0,6.4,0,6.4-6.5,6.4
		c-1.8,0-3.7,0.1-5.5,0.1c-1.2,0-2.4,0-3.6,0c-4.6,0-9.3-0.1-13.9-0.1c-30.2-0.1-60.4-0.1-90.6-0.1c1.3-8.7,2.4-17.5,0.1-26.2
		c-5.4-20.5-18.3-34.3-39-39.3c-20.6-5-38.4,1-52.8,16.6c-2.7,3-4.5,7-8.7,1.9c-0.5-0.7-1.8-0.7-2.8-1
		c-22.6-7.3-45.1-14.6-67.7-21.9c-2.2-0.7-4.1-0.7-6.3-0.1c-25.9,7.1-51.9,14-77.8,21c-1.8,0.5-3.7,0.7-5.1,1.8
		c-13.5,9.7-26.9,19.6-40.3,29.4c-9.7,5.5-18,13-27.3,19c-1.5-1.2-3.2-0.7-4.8-0.7c-92.5-0.1-185,0.4-277.5-0.9
		c-5.7-0.1-11.5,0.5-17.1-1.2c0.5-0.6,0.9-1.4,1.5-1.9c13.3-11.5,26.7-23,40.1-34.5C-93.2,110.5-82.3,101-71.3,91.6z"/>
	<path id="XMLID_26_" class="st0" d="M716.8,334.5"/>
	<path id="XMLID_18_" class="st0" d="M707.3,276.7"/>
	<path id="XMLID_8_" class="st0" d="M727.6,396c3.8,21.8,7.4,43.7,11.2,65.5c1.4,8,1.5,8-6.5,8c-71.9,0-143.9,0-215.8,0.1
		c-53.8,0-107.5,0-161.3,0c-6.5,0-6.5,0-6.5-6.3c0-50.3,0-100.5,0-150.8c0-4-0.1-8-0.2-12c0-1,0-2-0.1-3c0.1-4.5,0.1-9,0.2-13.5
		c0-6.8,0-6.9,6.7-6.9c56.5,0,113-0.1,169.5-0.1c56.7,0,113.3,0,170,0"/>
	<path id="XMLID_168_" class="st1" d="M239.5,177.4c-0.5,38.9,31,72.9,72.4,72.8c40.3,0,72.9-30.5,73.2-72.7
		c0.3-40.9-32-72.8-72.8-73.1C272.4,104.2,238.9,137.1,239.5,177.4z"/>
	<path id="XMLID_13_" class="st2" d="M766.4,588.6c-83.3,0-166.7,0-250,0c0-39.6,0-79.3,0-118.9c71.9,0,143.9,0,215.8-0.1
		c8,0,7.9,0,6.5-8c-3.8-21.8-7.4-43.6-11.2-65.5"/>
	<path id="XMLID_1_" class="st2" d="M762,562.3"/>
	<path id="XMLID_21_" class="st2" d="M716.8,334.5"/>
	<path id="XMLID_163_" class="st3" d="M466.2,189.3c-4.1-1.2-4.7-3-1.2-5.9c1.9-1.5,3.6-3.3,5.3-5c1.4,1.7,3.4,1.1,5.1,1.1
		c34.1,0,68.1,0,102.2,0c1.3,0,2.7,0,4-0.2c2.8-0.4,4.4-1.6,4.2-4.9c-0.3-5.3,0-10.6,0-15.9c1.2,0,2.4,0,3.6,0c0,5.7,0,11.3,0,17
		c0,6.1-0.7,6.9-6.9,6.9c-35.1,0-70.2,0.1-105.3-0.1C471.4,182.1,467.6,183.3,466.2,189.3z"/>
	<path id="XMLID_7_" class="st4" d="M707.3,276.7"/>
	<path id="XMLID_39_" class="st2" d="M-145.8,156.3c5.6,1.7,11.3,1.1,17.1,1.2c92.5,1.3,185,0.8,277.5,0.9c1.6,0,3.4-0.5,4.8,0.7
		c-23.5,17-46.8,34.5-70.8,50.9c-11.2,7.7-20.2,16.3-24.2,29.5c-0.2,0.7-0.9,1.4-1.3,2c-0.3,0.3-0.5,0.6-0.8,0.9h0.1
		c-2.4,0.5-3.6,2.2-4.5,4.2c-3.2,7.2-6.3,14.4-9.4,21.6c-11.1,1-21.3,4-30.4,10.7c-10.7,7.9-17,18.7-20.5,31.2
		c-1.8,0.2-2.9,1.4-3.9,2.8c-15.2,20.4-13.3,50.7,4.7,68.7c12.3,12.3,27.2,18.1,44.7,15.7c4-0.5,6.1,0.5,6.9,4.9
		c1.9,10.3,4.1,20.5,6.5,30.7c1.6,6.9,1.7,14.4,5.7,20.5c15.5,24.1,31.1,48,46.7,72c13.6,20.9,27.2,41.8,40.8,62.6
		c-2,0.1-4,0.3-6,0.3c-93.3,0-186.5,0-279.8,0c-2,0-4-0.2-6-0.2c0.1-2.8,0.2-5.7,0.2-8.5c0-45.5,0-90.9,0-136.4"/>
	<path id="XMLID_110_" class="st5" d="M57.4,241.6c0.4-0.7,1.1-1.3,1.3-2c4-13.2,13-21.8,24.2-29.5c24-16.4,47.2-33.9,70.8-50.9
		c9.4-6,17.7-13.5,27.3-19c2.7,1.7,3.7,4.6,5,7.2c12,22.6,23.8,45.4,35.7,68c8.1,15.4,16.4,30.8,24.6,46.2c0.6,1.2,1.2,2.4,2.6,2.9
		c-4.3,3.9-8.7,7.7-11.2,13.1c-3.2,6.9-2.1,11.3,3.9,15.9c-0.4,2.6-2.3,4.3-3.9,6.2c-4.3,5.2-7.8,10.8-9.5,17.4
		c-2.8,10.6,2.6,17.9,10,24.3c6.1,5.2,12.1,5.4,20.3,0.9c4,9.8,9.5,19,14.9,28.1c1.9,3.3,5.2,5.6,9.4,5.8c8.9,2.1,14.9-2.2,19.9-8.9
		c0.9,4.2,3.3,7.6,5.2,11.3c7.9,15.2,16,30.2,24.1,45.3c0.4,0.8,0.8,1.8,2,2.1c1.4-1.9,0.7-3.9,0.7-5.8c0-38,0-75.9,0-113.9
		c0-7.4,0.4-7.8,8-7.9c2.1,0,3.9-0.5,5.8-1.1c0,1,0,2,0.1,3c-1.5,0.1-3,0.2-4.5,0.2c-7.3,0.1-7.3,0.1-7.4,7.5
		c-0.6,42.8,1,85.6-0.8,128.3c-0.7,16.6-0.1,33.3-0.1,50c0,5.9,1,6.9,7,6.9c10.1,0,20.3-0.7,30.4-0.8c41.5-0.5,83-0.2,124.4-0.2
		c6.8,0,7.1,0.3,7.1,7c0,27.5,0,55,0,82.5c0,2.2-0.3,4.3-0.9,6.4c-1.7,0.1-3.3,0.3-5,0.3c-107.4,0-214.8,0-322.2,0
		c-1.3,0-2.7-0.1-4-0.2c-4.5-7.6-9.8-14.7-14.9-21.8c-0.5-0.9-0.9-1.8-1.4-2.6c-28.8-44.2-57.6-88.4-86.4-132.5
		c-1.7-2.7-2.7-5.5-3.4-8.7c-2.2-10.8-4.7-21.6-7.1-32.3c-1.2-5.6-2.5-11.1-3.7-16.7c-1.2-12.9-5.2-25.3-7.4-38
		c-1.3-7.1-4.3-14.1-3.9-21.4c0.7-12.2,2.2-24.4,3.2-36.6c0.2-2.9,1.1-6-0.9-8.7c2.3-5.9,3.9-12.1,6.8-17.7c1.4-2.7,3.1-5.4,3.3-8.7
		h-0.1C57.3,242.6,57.3,242,57.4,241.6z M227.6,261.8c-0.1-40.4-32.6-72.4-73.3-72.5c-37.9-0.1-72.5,30.6-72.4,73
		c0.2,38.6,29.6,72.8,73.9,72.6C195.9,334.8,227.8,302,227.6,261.8z M435.7,494.4c-20,0-40,0-60,0c-6.7,0-6.8,0-3.8,5.8
		c14.4,27.4,28.8,54.8,43.1,82.3c1.6,3.2,3.8,4,7.2,4c24.8-0.1,49.7-0.2,74.5,0c4.8,0,5.9-1.7,5.9-6.1c-0.2-26.7-0.2-53.3,0-80
		c0-5-1.8-6.2-6.4-6.1C476.1,494.5,455.9,494.4,435.7,494.4z"/>
	<path id="XMLID_108_" class="st6" d="M503.7,588.1c0.6-2.1,0.9-4.2,0.9-6.4c0-27.5,0-55,0-82.5c0-6.7-0.4-7-7.1-7
		c-41.5,0-83-0.3-124.4,0.2c-10.1,0.1-20.2,0.8-30.4,0.8c-6.1,0-7-1-7-6.9c0-16.7-0.6-33.3,0.1-50c1.8-42.8,0.3-85.6,0.8-128.3
		c0.1-7.4,0-7.4,7.4-7.5c1.5,0,3-0.1,4.5-0.2c0.1,4,0.2,8,0.2,12c0,50.3,0,100.5,0,150.8c0,6.3,0,6.3,6.5,6.3
		c53.8,0,107.5,0,161.3,0c0,39.6,0,79.3,0,118.9C512.2,588.3,508,588.2,503.7,588.1z"/>
	<path id="XMLID_107_" class="st7" d="M59.3,390.3c2.4,10.8,4.9,21.5,7.1,32.3c0.6,3.1,1.6,6,3.4,8.7
		c28.8,44.2,57.6,88.3,86.4,132.5c0.5,0.8,1,1.7,1.4,2.6c0,7.2-0.1,14.5-0.1,21.7c-4.5,0-9.1,0-13.6,0
		c-13.6-20.9-27.2-41.8-40.8-62.7c-15.6-24-31.2-47.9-46.7-72c-4-6.2-4-13.6-5.7-20.5c-2.4-10.2-4.6-20.4-6.5-30.7
		c-0.8-4.4-2.9-5.4-6.9-4.9c-17.6,2.4-32.4-3.4-44.7-15.7c-18-18-19.9-48.4-4.7-68.7c1-1.4,2.1-2.6,3.9-2.8c-0.4,3.5-1,6.9-1.1,10.4
		c-0.7,27.5,19.9,50.7,48,54.1c1,5.5,1.8,11.1,3.2,16.5c0.8,3.1,3.2,5.1,6.9,3.5C52.3,393.2,55.8,391.8,59.3,390.3z"/>
	<path id="XMLID_104_" class="st8" d="M157.5,588.1c0-7.2,0.1-14.5,0.1-21.7c5.2,7.2,10.4,14.2,14.9,21.8
		C167.6,588.2,162.6,588.1,157.5,588.1z"/>
	<path id="XMLID_97_" class="st7" d="M126.5,815.5c-0.3-0.3-0.6-0.5-0.9-0.8C125.9,814.9,126.2,815.2,126.5,815.5z"/>
	<path id="XMLID_96_" class="st7" d="M127.6,816.5c-0.4-0.3-0.7-0.6-1.1-0.9C126.9,815.8,127.2,816.1,127.6,816.5z"/>
	<path id="XMLID_83_" class="st6" d="M585.8,158.5c0,5.3-0.3,10.6,0,15.9c0.2,3.3-1.4,4.5-4.2,4.9c-1.3,0.2-2.6,0.2-4,0.2
		c-34.1,0-68.1,0-102.2,0c-1.7,0-3.7,0.6-5.1-1.1c5.2-5.9,8.1-13,11-20.2c30.2,0,60.4,0.1,90.6,0.1
		C576.6,158.4,581.2,158.4,585.8,158.5z"/>
	<path id="XMLID_77_" class="st9" d="M239.5,177.4c-0.6-40.3,32.8-73.1,72.8-72.9c40.8,0.2,73.1,32.2,72.8,73.1
		c-0.3,42.1-32.9,72.6-73.2,72.7C270.5,250.2,239.1,216.2,239.5,177.4z M378,165.6c-0.1-12.9-10.3-23.2-23.2-23.2
		c-12.7,0-23.2,10.5-23.2,23.2c0,13,10.6,23.3,23.7,23.1C367.9,188.6,378,178.2,378,165.6z"/>
	<path id="XMLID_76_" class="st10" d="M258.4,342.3c-8.2,4.5-14.2,4.4-20.3-0.9c-7.4-6.3-12.7-13.7-10-24.3
		c1.7-6.6,5.2-12.2,9.5-17.4c1.6-1.9,3.5-3.6,3.9-6.2c2.7,0.9,5.3,1.8,8.2,1.9c14.2,0.6,36.3-10.9,41-27.1
		c8.9-1.7,17.7-2.7,26.6,0.4c9.4,3.3,14.6,10.8,15.1,23c0.4,8.8-4.5,14.3-12.2,17.5c-1.2,0.5-2.4,1.1-3.6,1.7
		c-8.9,2.7-18.4,3.7-27,7.4c-1.8,0.4-3.6,0.8-4.9,2.2c-8.7,4-14.4,11.5-21.1,17.8C261.8,339.7,260.1,341,258.4,342.3z"/>
	<path id="XMLID_75_" class="st11" d="M290.7,268.4c-4.7,16.2-26.8,27.7-41,27.1c-2.9-0.1-5.5-1-8.2-1.9c-6-4.7-7.1-9.1-3.9-15.9
		c2.5-5.4,6.9-9.2,11.2-13.1c7.5-4.9,15.5-8.8,24.6-9.7c3.5-0.3,6.9,0,10.2,1.2C289.4,258.3,291.1,262.7,290.7,268.4z"/>
	<path id="XMLID_74_" class="st9" d="M263.5,338.4c6.7-6.3,12.4-13.8,21.1-17.8c0.6,1.5,1.1,3.1,1.9,4.6
		c5.4,10.1,10.8,20.2,16.1,30.3c0.3,0.3,0.6,0.7,0.9,1l0,0c-0.3,3.6-0.7,7.2-1,10.9c-4.9,6.7-11,11-19.9,8.9
		c-2.8-8.4-8.3-15.4-12.1-23.3C268.2,348.1,264.4,343.9,263.5,338.4z"/>
	<path id="XMLID_73_" class="st9" d="M289.5,318.3c8.7-3.7,18.1-4.7,27-7.4c4.7,8.9,9.8,17.7,14.1,26.8c5.6,11.7-3.9,24.8-16.8,23.6
		c-0.7-0.1-1.4-0.6-2.2-1c0.1-1.7-0.7-3.2-1.5-4.7C303.2,343.3,296.3,330.8,289.5,318.3z"/>
	<path id="XMLID_72_" class="st4" d="M289.5,318.3c6.9,12.5,13.8,24.9,20.7,37.4c0.8,1.5,1.6,2.9,1.5,4.7c-3.6,0.5-5.5-2.4-8.1-3.9
		l0,0c-0.3-0.3-0.6-0.7-0.9-1c-5.4-10.1-10.8-20.2-16.1-30.3c-0.8-1.4-1.3-3-1.9-4.6C285.9,319.1,287.7,318.7,289.5,318.3z"/>
	<path id="XMLID_36_" class="st1" d="M38.7,374.7c-28.1-3.4-48.7-26.6-48-54.1c0.1-3.5,0.7-6.9,1.1-10.4
		c3.6-12.6,9.8-23.3,20.5-31.2c9.1-6.7,19.4-9.7,30.4-10.7c1.3,0.2,2.5,0.4,3.8,0.5c2,2.7,1.1,5.9,0.9,8.7
		c-0.9,12.2-2.5,24.4-3.2,36.6c-0.4,7.3,2.6,14.2,3.9,21.4c2.2,12.7,6.3,25.1,7.4,38C50,375,44.4,374.8,38.7,374.7z"/>
	<path id="XMLID_35_" class="st7" d="M46.5,268.8c-1.3-0.2-2.5-0.4-3.8-0.5c3.1-7.2,6.3-14.4,9.4-21.6c0.9-2,2.1-3.8,4.5-4.2
		c-0.2,3.2-1.9,6-3.3,8.7C50.4,256.8,48.8,262.9,46.5,268.8z"/>
	<path id="XMLID_34_" class="st7" d="M57.4,241.6c-0.1,0.5-0.1,1-0.8,0.9C56.8,242.2,57.1,241.9,57.4,241.6z"/>
	<path id="XMLID_31_" class="st9" d="M227.6,261.8c0.2,40.2-31.6,73-71.8,73.1c-44.3,0.2-73.7-34-73.9-72.6
		c-0.2-42.5,34.4-73.1,72.4-73C195,189.4,227.5,221.4,227.6,261.8z M211.5,244.3l0.1,0.1c0-1.5-0.3-2.9-1-4.3
		c-3.9-8-13.5-12.5-22.2-10.4c-9.1,2.1-15.5,10.4-15.4,19.6c0.2,9.2,6.6,17.3,15.4,19.1c7.6,1.5,14.3-0.3,19.4-6.3
		C212.1,257,214.4,251.1,211.5,244.3z"/>
	<path id="XMLID_30_" class="st1" d="M435.7,494.4c20.2,0,40.3,0.1,60.5-0.1c4.6,0,6.4,1.1,6.4,6.1c-0.2,26.7-0.2,53.3,0,80
		c0,4.5-1.1,6.2-5.9,6.1c-24.8-0.2-49.7-0.1-74.5,0c-3.4,0-5.5-0.8-7.2-4c-14.3-27.5-28.7-54.8-43.1-82.3c-3-5.8-3-5.8,3.8-5.8
		C395.7,494.4,415.7,494.4,435.7,494.4z"/>
	<path id="XMLID_29_" class="st11" d="M38.7,374.7c5.7,0.1,11.3,0.3,16.9-1.1c1.2,5.6,2.5,11.1,3.7,16.7c-3.5,1.5-7,2.9-10.5,4.4
		c-3.7,1.6-6.1-0.4-6.9-3.5C40.5,385.8,39.7,380.2,38.7,374.7z"/>
	<path id="XMLID_28_" class="st4" d="M263.5,338.4c0.9,5.6,4.8,9.7,7.1,14.6c3.8,7.9,9.3,14.9,12.1,23.3c-4.2-0.2-7.4-2.6-9.4-5.8
		c-5.4-9.1-10.8-18.2-14.9-28.1C260.1,341,261.8,339.7,263.5,338.4z"/>
	<path id="XMLID_25_" class="st6" d="M390.6,863.5c-0.4,2.5-2.4,1.9-3.9,1.9c-49.4,0-98.8,0-148.2,0c-1.6,0-3.5,0.5-3.9-1.9
		C286.6,863.5,338.6,863.5,390.6,863.5z"/>
	<path id="XMLID_23_" class="st6" d="M199.6,863.3c-6.7,1.7-13.4,1.9-20.1-0.1C186.2,861.9,192.9,861.8,199.6,863.3z"/>
	<path id="XMLID_22_" class="st6" d="M444.6,863.3c-5.4,1.9-10.7,1.8-16.1,0.1C433.9,861.9,439.2,861.9,444.6,863.3z"/>
	<path id="XMLID_17_" class="st6" d="M141.6,862.4c-0.3-0.7-0.7-1.4-1-2.1c2.2,0.2,4.3,0.6,5.3,2.9
		C144.5,862.9,143.1,862.6,141.6,862.4z"/>
	<path id="XMLID_10_" class="st11" d="M378,165.6c0.1,12.6-10.1,23-22.6,23.1c-13.1,0.2-23.7-10.1-23.7-23.1
		c0-12.7,10.5-23.2,23.2-23.2C367.6,142.5,377.9,152.7,378,165.6z M366.8,154.2c-5.4,0-9.4,4.1-9.3,9.5c0.1,5.3,4.3,9.5,9.5,9.5
		c5-0.1,9.5-4.6,9.5-9.7C376.4,158.3,372.1,154.1,366.8,154.2z"/>
	<path id="XMLID_9_" class="st1" d="M302.6,355.4c0.3,0.3,0.6,0.7,0.9,1C303.2,356.1,302.9,355.8,302.6,355.4z"/>
	<path id="XMLID_5_" class="st11" d="M211.5,244.3c2.8,6.8,0.6,12.7-3.8,17.8c-5.1,6-11.8,7.8-19.4,6.3c-8.7-1.8-15.2-9.9-15.4-19.1
		c-0.2-9.2,6.3-17.5,15.4-19.6c8.8-2.1,18.4,2.5,22.2,10.4C211.2,241.5,211.5,242.9,211.5,244.3c-1.4-0.1-1.4-1.6-2.2-2.3
		c-2.9-3-6.3-3.7-10-1.8c-3.8,1.9-5,5.2-4,9.2c1,4.1,3.9,6.1,8.1,6c4.2-0.1,6.7-2.6,7.7-6.6C211.6,247.4,211.4,245.8,211.5,244.3z"
		/>
	<path id="XMLID_4_" class="st3" d="M366.8,154.2c5.3,0,9.6,4.1,9.7,9.3c0.1,5-4.4,9.6-9.5,9.7c-5.2,0.1-9.5-4.2-9.5-9.5
		C357.4,158.3,361.4,154.2,366.8,154.2z"/>
	<path id="XMLID_3_" class="st3" d="M211.5,244.3c-0.1,1.5,0,3-0.3,4.4c-1,3.9-3.5,6.5-7.7,6.6c-4.1,0.1-7-1.9-8.1-6
		c-1-4,0.3-7.4,4-9.2c3.6-1.8,7.1-1.1,10,1.8C210.2,242.7,210.1,244.2,211.5,244.3C211.6,244.4,211.5,244.3,211.5,244.3z"/>
</g>
<path id="XMLID_6_" class="st1" d="M701.6,276.5c-1.9,1-3.9,0.6-5.9,0.6c-56.7,0-113.3,0-170,0c-56.5,0-113,0.1-169.5,0.1
	c-6.7,0-6.7,0-6.7,6.9c0,4.5-0.1,9-0.2,13.5c-1.9,0.6-3.8,1.1-5.8,1.1c-7.6,0-8,0.4-8,7.9c0,38,0,75.9,0,113.9
	c0,1.9,0.7,3.9-0.7,5.8c-1.2-0.3-1.5-1.3-2-2.1c-8.1-15.1-16.1-30.2-24.1-45.3c-1.9-3.7-4.3-7.1-5.2-11.3c0.3-3.6,0.7-7.2,1-10.9
	c2.6,1.5,4.5,4.4,8.1,3.9c0.7,0.3,1.4,0.9,2.2,1c12.9,1.2,22.4-11.9,16.8-23.6c-4.4-9.1-9.4-17.9-14.1-26.8c1.2-0.6,2.4-1.2,3.6-1.7
	c7.8-3.3,12.6-8.7,12.2-17.5c-0.5-12.2-5.7-19.7-15.1-23c-8.8-3.1-17.7-2.1-26.6-0.4c0.4-5.7-1.3-10.1-7-12.2
	c-3.3-1.2-6.7-1.6-10.2-1.2c-9.1,0.8-17.1,4.7-24.6,9.7c-1.4-0.5-2-1.7-2.6-2.9c-8.2-15.4-16.4-30.8-24.6-46.2
	c-11.9-22.7-23.7-45.4-35.7-68c-1.4-2.6-2.3-5.5-5-7.2c13.4-9.8,26.8-19.7,40.3-29.4c1.4-1,3.4-1.3,5.1-1.8
	c25.9-7,51.9-13.9,77.8-21c2.2-0.6,4.1-0.6,6.3,0.1c22.5,7.4,45.1,14.6,67.7,21.9c0.9,0.3,2.2,0.4,2.8,1c4.3,5.1,6,1.1,8.7-1.9
	c14.4-15.6,32.3-21.6,52.8-16.6c20.6,5,33.6,18.8,39,39.3c2.3,8.7,1.3,17.5-0.1,26.2c-2.9,7.1-5.8,14.3-11,20.2
	c-1.8,1.7-3.4,3.5-5.3,5c-3.4,2.8-2.9,4.7,1.2,5.9c4.4,4.5,8.5,9.5,13.4,13.4c3.7,3,5.6,6.7,7.2,11c7.3,19.5,14.8,38.8,22,58.3
	c1.3,3.5,3.8,3.5,6.8,3.5c38.7,0,77.3,0,116,0c23,0,46,0,69,0C701.6,275.9,701.6,276.2,701.6,276.5z M240.6,177.5
	c-0.5,38.9,31,72.9,72.4,72.8c40.3,0,72.9-30.5,73.2-72.7c0.3-40.9-32-72.8-72.8-73.1C273.4,104.4,240,137.3,240.6,177.5z"/>
</svg>
