<?xml version="1.0" standalone="no"?>
<!DOCTYPE svg PUBLIC "-//W3C//DTD SVG 20010904//EN"
 "http://www.w3.org/TR/2001/REC-SVG-20010904/DTD/svg10.dtd">
<svg version="1.0" xmlns="http://www.w3.org/2000/svg"
 width="688.000000pt" height="239.000000pt" viewBox="0 0 688.000000 239.000000"
 preserveAspectRatio="xMidYMid meet">
<metadata>
Created by potrace 1.13, written by Peter Selinger 2001-2015
</metadata>
<g transform="translate(0.000000,239.000000) scale(0.100000,-0.100000)"
fill="#000000" stroke="none">
<path d="M2170 1425 l0 -695 125 0 125 0 0 695 0 695 -125 0 -125 0 0 -695z"/>
<path d="M4730 1425 l0 -695 125 0 125 0 0 245 c0 135 3 245 8 245 4 0 88
-113 187 -250 98 -138 185 -250 191 -250 12 0 215 69 222 76 2 1 -80 106 -183
233 -103 128 -185 236 -183 241 2 5 71 81 153 170 83 89 151 165 152 168 2 6
-100 52 -168 77 -13 5 -59 -43 -179 -182 -90 -103 -171 -189 -181 -191 -18 -3
-19 13 -19 402 l0 406 -125 0 -125 0 0 -695z"/>
<path d="M5822 1887 c-27 -29 -29 -86 -4 -116 9 -12 34 -24 54 -27 50 -9 88
28 88 84 0 74 -88 112 -138 59z"/>
<path d="M567 1689 c-137 -32 -227 -148 -214 -276 9 -88 49 -138 208 -259 128
-97 149 -123 149 -183 0 -39 -5 -52 -30 -76 -24 -23 -41 -30 -88 -33 -63 -4
-110 13 -180 65 -18 14 -35 23 -36 22 -2 -2 -20 -33 -41 -68 -45 -73 -47 -69
55 -121 74 -38 163 -54 258 -47 135 9 236 65 287 158 25 45 29 65 29 124 0
113 -36 162 -219 302 -145 111 -172 152 -136 210 35 56 132 64 222 18 15 -8
32 -15 36 -15 5 0 23 25 42 56 37 62 38 61 -34 93 -85 38 -218 51 -308 30z"/>
<path d="M1517 1681 c-58 -19 -163 -90 -174 -117 -12 -33 -23 -10 -23 51 l0
65 -120 0 -120 0 0 -710 0 -710 120 0 120 0 0 296 0 296 50 -45 c71 -64 129
-89 214 -95 273 -17 479 203 479 513 0 164 -45 277 -145 370 -74 69 -145 97
-258 101 -64 3 -99 -1 -143 -15z m162 -164 c83 -55 129 -187 118 -341 -8 -104
-29 -174 -70 -227 -50 -66 -79 -83 -150 -87 -78 -5 -127 17 -180 79 -47 55
-67 115 -74 224 -11 189 54 330 172 373 52 19 138 9 184 -21z"/>
<path d="M4127 1690 c-55 -14 -116 -47 -169 -92 l-48 -39 0 60 0 61 -125 0
-125 0 0 -475 0 -475 124 0 125 0 3 323 c3 315 4 323 26 370 35 70 94 102 189
102 77 0 106 -13 146 -66 32 -44 37 -95 37 -416 l0 -313 126 0 125 0 -3 373
c-3 364 -3 373 -26 423 -29 64 -82 116 -147 145 -56 25 -194 35 -258 19z"/>
<path d="M2590 1673 c0 -4 0 -166 0 -359 1 -390 4 -419 63 -496 20 -27 55 -54
92 -73 55 -28 66 -30 169 -30 99 0 117 3 168 27 31 14 76 45 101 67 24 23 47
41 51 41 3 0 6 -27 6 -60 l0 -60 125 0 125 0 0 475 0 475 -124 0 -124 0 -4
-312 -3 -313 -27 -57 c-38 -82 -87 -112 -182 -112 -85 -1 -124 17 -158 71 -23
37 -23 43 -28 378 l-5 340 -122 3 c-68 1 -123 -1 -123 -5z"/>
</g>
</svg>
