<?xml version="1.0" standalone="no"?>
<!DOCTYPE svg PUBLIC "-//W3C//DTD SVG 20010904//EN"
 "http://www.w3.org/TR/2001/REC-SVG-20010904/DTD/svg10.dtd">
<svg version="1.0" xmlns="http://www.w3.org/2000/svg"
 width="60.000000pt" height="60.000000pt" viewBox="0 0 60.000000 60.000000"
 preserveAspectRatio="xMidYMid meet">
<metadata>
Created by potrace 1.13, written by Peter Selinger 2001-2015
</metadata>
<g transform="translate(0.000000,60.000000) scale(0.100000,-0.100000)"
fill="#000000" stroke="none">
<path d="M279 443 c-1 -16 -2 -40 -3 -55 -1 -20 -6 -28 -20 -28 -15 0 -17 6
-14 31 5 29 4 30 -31 27 -31 -3 -36 -7 -39 -30 -3 -22 -9 -28 -28 -28 -19 0
-24 -5 -24 -25 0 -19 -5 -25 -21 -25 -13 0 -23 -8 -26 -21 -3 -11 -11 -18 -18
-15 -6 2 -18 0 -26 -5 -10 -6 -7 -9 13 -9 22 0 31 -7 41 -32 8 -18 25 -42 38
-53 15 -12 19 -14 11 -4 -11 15 -8 17 28 21 34 3 45 -1 66 -23 l26 -27 -28 -5
c-18 -2 -10 -5 22 -6 80 -2 149 24 206 77 28 26 54 57 59 69 5 13 17 23 28 23
10 0 29 9 42 20 21 17 22 21 9 30 -8 5 -24 10 -35 10 -10 0 -29 12 -42 28 -19
23 -24 25 -33 12 -6 -8 -9 -31 -8 -50 3 -34 2 -35 -34 -38 -35 -3 -38 -1 -38
22 0 21 -5 26 -25 26 -24 0 -25 3 -25 55 l0 55 -35 0 c-31 0 -35 -3 -36 -27z
m241 -85 c0 -4 14 -8 30 -8 17 0 30 -4 30 -8 0 -15 -24 -32 -46 -32 -14 0 -25
-8 -29 -20 -4 -11 -15 -20 -28 -20 -44 -2 -93 -2 -117 -1 -14 0 -40 1 -57 1
-18 -1 -43 -1 -55 0 -13 0 -54 0 -92 0 -72 -1 -82 2 -71 19 4 7 72 11 193 11
103 0 193 4 200 9 9 5 11 17 7 34 -4 15 -4 35 0 44 6 17 7 17 21 -1 8 -11 14
-23 14 -28z"/>
</g>
</svg>
