<?xml version="1.0" encoding="UTF-8" ?>
<!DOCTYPE svg PUBLIC "-//W3C//DTD SVG 1.1//EN" "http://www.w3.org/Graphics/SVG/1.1/DTD/svg11.dtd">
<svg width="200pt" height="200pt" viewBox="0 0 200 200" version="1.1" xmlns="http://www.w3.org/2000/svg">
<path fill="#ffffff" d=" M 0.00 0.00 L 200.00 0.00 L 200.00 200.00 L 0.00 200.00 L 0.00 0.00 Z" />
<path fill="#92c62e" d=" M 79.16 13.54 C 100.88 8.78 124.22 11.76 143.97 21.99 C 163.89 32.18 180.04 49.50 188.79 70.09 C 193.93 82.04 196.47 95.05 196.56 108.04 C 167.31 108.11 138.06 107.93 108.82 108.13 C 111.36 109.12 113.89 110.11 116.44 111.09 C 115.39 114.73 113.74 118.33 110.72 120.76 C 104.98 125.90 95.64 126.18 89.61 121.37 C 86.21 118.92 84.24 115.08 83.14 111.12 C 85.73 110.11 88.32 109.09 90.91 108.08 C 61.62 108.01 32.33 108.07 3.05 108.04 C 3.01 87.60 9.66 67.21 21.84 50.78 C 35.59 31.97 56.36 18.42 79.16 13.54 Z" />
<path fill="#ffffff" d=" M 74.98 26.87 C 96.28 20.31 120.14 22.57 139.76 33.17 C 163.38 45.59 180.28 69.73 183.90 96.17 C 167.54 96.19 151.18 96.19 134.83 96.17 C 131.94 88.22 126.53 81.14 119.27 76.70 C 108.38 69.80 93.81 69.29 82.47 75.46 C 74.17 79.78 67.92 87.44 64.74 96.17 C 48.39 96.19 32.04 96.19 15.69 96.17 C 17.86 81.08 24.10 66.59 33.73 54.75 C 44.30 41.63 58.85 31.75 74.98 26.87 Z" />
<path fill="#191e23" d=" M 9.80 139.83 C 15.86 136.42 23.56 136.56 29.91 139.09 C 34.54 140.90 37.01 145.73 37.54 150.45 C 34.73 150.44 31.87 150.75 29.10 150.18 C 26.74 148.93 25.50 145.88 22.62 145.57 C 19.87 145.23 15.83 144.91 14.51 147.99 C 13.88 150.31 16.34 151.26 18.05 151.93 C 24.16 154.01 31.29 154.17 36.31 158.67 C 40.74 163.82 38.91 172.77 33.14 176.18 C 28.59 178.90 23.06 179.10 17.90 178.88 C 13.14 178.67 7.89 177.09 5.17 172.87 C 3.57 170.59 3.41 167.74 3.05 165.07 C 6.44 165.04 9.82 165.02 13.21 165.04 C 14.02 171.47 22.79 172.63 27.25 169.35 C 29.25 167.69 27.88 164.80 25.69 164.19 C 19.63 161.97 12.59 161.88 7.38 157.67 C 1.84 152.96 3.74 143.24 9.80 139.83 Z" />
<path fill="#191e23" d=" M 46.18 143.23 C 52.01 136.05 63.38 135.62 70.93 140.18 C 77.74 144.55 79.00 153.41 78.75 160.86 C 69.95 160.91 61.15 160.86 52.35 160.89 C 52.59 164.81 54.38 169.56 58.84 170.13 C 62.58 171.12 65.81 168.94 68.31 166.44 C 71.45 165.37 74.93 166.08 78.20 165.94 C 77.03 169.22 75.56 172.56 72.74 174.77 C 67.59 179.14 60.11 179.85 53.78 178.08 C 47.57 176.24 43.34 170.30 42.36 164.06 C 41.26 157.03 41.59 149.04 46.18 143.23 Z" />
<path fill="#191e23" d=" M 86.97 141.90 C 94.54 135.83 106.46 135.73 113.84 142.17 C 117.07 145.53 117.60 150.47 117.65 154.92 C 117.67 162.68 117.64 170.45 117.65 178.22 C 114.16 178.15 108.64 179.18 107.49 174.67 C 106.85 166.78 107.69 158.83 107.11 150.93 C 106.40 145.70 99.06 144.14 95.37 147.31 C 93.33 148.83 93.20 151.57 93.20 153.88 C 93.21 161.99 93.22 170.10 93.21 178.20 C 89.71 178.20 86.21 178.20 82.72 178.20 C 82.74 170.16 82.67 162.12 82.73 154.08 C 82.85 149.77 83.56 144.92 86.97 141.90 Z" />
<path fill="#191e23" d=" M 129.34 139.36 C 135.35 136.46 142.69 136.65 148.80 139.17 C 153.33 141.04 155.71 145.81 156.25 150.45 C 153.51 150.48 150.75 150.67 148.03 150.26 C 145.38 149.08 144.11 145.58 140.88 145.49 C 138.28 145.26 134.22 145.01 133.23 148.12 C 132.60 150.45 135.33 151.37 137.02 152.02 C 142.73 153.86 149.12 154.23 154.11 157.87 C 158.43 161.34 158.20 168.16 155.52 172.57 C 152.47 177.38 146.39 178.73 141.07 178.92 C 135.41 179.14 128.85 178.64 124.82 174.13 C 122.50 171.69 122.09 168.24 121.75 165.05 C 125.13 165.03 128.51 165.03 131.88 165.05 C 132.64 171.11 140.32 172.27 144.95 170.05 C 146.83 169.31 147.76 166.48 145.95 165.17 C 139.19 161.18 129.30 162.64 124.27 155.62 C 120.91 150.08 123.53 142.11 129.34 139.36 Z" />
<path fill="#191e23" d=" M 161.43 138.20 C 164.93 138.20 168.43 138.19 171.93 138.19 C 172.09 147.39 171.63 156.62 172.15 165.79 C 173.35 172.32 184.34 172.30 185.75 165.93 C 186.59 157.81 185.37 149.57 186.30 141.46 C 187.76 137.22 192.90 138.27 196.37 138.19 C 196.34 146.12 196.39 154.05 196.35 161.99 C 196.26 166.52 195.61 171.73 191.92 174.84 C 184.29 180.45 173.01 180.22 165.55 174.43 C 162.33 171.53 161.62 166.93 161.46 162.82 C 161.39 154.61 161.47 146.40 161.43 138.20 Z" />
<path fill="#ffffff" d=" M 54.45 148.42 C 56.96 145.52 61.68 145.22 64.81 147.24 C 67.14 148.75 67.48 151.68 68.07 154.15 C 62.81 154.17 57.56 154.17 52.31 154.14 C 52.85 152.19 53.00 149.97 54.45 148.42 Z" />
</svg>
