<?xml version="1.0" encoding="utf-8"?>
<!-- Generator: Adobe Illustrator 16.0.4, SVG Export Plug-In . SVG Version: 6.00 Build 0)  -->
<!DOCTYPE svg PUBLIC "-//W3C//DTD SVG 1.1//EN" "http://www.w3.org/Graphics/SVG/1.1/DTD/svg11.dtd">
<svg version="1.1" id="Layer_1" xmlns="http://www.w3.org/2000/svg" xmlns:xlink="http://www.w3.org/1999/xlink" x="0px" y="0px"
	 width="300px" height="430px" viewBox="0 0 300 430" enable-background="new 0 0 300 430" xml:space="preserve">
<g>
	<path fill="#31739E" d="M135.429,390.996h-14.928v1.585c4.669,0,5.42,0.999,5.42,6.923v10.675c0,5.92-0.751,7.005-5.42,7.005
		c-3.585-0.5-6.004-2.42-9.34-6.089l-3.836-4.168c5.172-0.919,7.924-4.171,7.924-7.842c0-4.586-3.92-8.089-11.259-8.089H89.312
		v1.585c4.669,0,5.419,0.999,5.419,6.923v10.675c0,5.92-0.75,7.005-5.419,7.005v1.583h16.595v-1.583c-4.67,0-5.42-1.085-5.42-7.005
		v-3.002h1.417l9.256,11.59h24.269c11.926,0,17.096-6.337,17.096-13.927C152.525,397.252,147.355,390.996,135.429,390.996z
		 M100.487,404.59v-11.091h3.419c3.751,0,5.421,2.585,5.421,5.586c0,2.919-1.669,5.505-5.421,5.505H100.487z M135.679,416.182
		h-0.584c-3.002,0-3.418-0.75-3.418-4.586v-18.097c0,0,3.669,0,4.003,0c8.673,0,10.258,6.337,10.258,11.258
		C145.937,409.844,144.352,416.182,135.679,416.182z"/>
	<path fill="#31739E" d="M42.861,407.676l5.754-17.014c1.669-4.919,0.918-6.337-4.419-6.337v-1.669h15.679v1.669
		c-5.253,0-6.504,1.25-8.59,7.338l-9.508,28.522h-1.083l-8.507-26.104l-8.673,26.104H22.43l-9.256-28.522
		c-2.002-6.088-3.336-7.338-8.173-7.338v-1.669h18.514v1.669c-4.92,0-6.255,1.168-4.503,6.337l5.586,17.014l8.424-25.02h1.585
		L42.861,407.676z"/>
	<path fill="#31739E" d="M71.215,419.851c-9.173,0-16.679-6.754-16.679-15.011c0-8.173,7.506-14.929,16.679-14.929
		c9.173,0,16.68,6.756,16.68,14.929C87.895,413.097,80.388,419.851,71.215,419.851z M71.215,392.498
		c-7.672,0-10.341,6.92-10.341,12.342c0,5.504,2.669,12.344,10.341,12.344c7.756,0,10.425-6.84,10.425-12.344
		C81.64,399.418,78.971,392.498,71.215,392.498z"/>
	<path fill="#504B48" d="M173.123,417.099v1.668h-19.099v-1.668c5.589,0,6.589-1.417,6.589-9.758V394c0-8.342-1-9.675-6.589-9.675
		v-1.669h17.264c8.59,0,13.344,4.42,13.344,10.343c0,5.754-4.754,10.258-13.344,10.258h-4.754v4.084
		C166.534,415.682,167.533,417.099,173.123,417.099z M171.288,385.658h-4.754v14.511h4.754c4.671,0,6.838-3.252,6.838-7.17
		C178.126,388.996,175.959,385.658,171.288,385.658z"/>
	<path fill="#504B48" d="M241.922,410.928l-0.416,1.502c-0.75,2.751-1.669,3.752-7.589,3.752h-1.169
		c-4.335,0-5.086-1.001-5.086-6.921v-3.837c6.504,0,7.006,0.584,7.006,4.92h1.585v-12.425h-1.585c0,4.335-0.502,4.919-7.006,4.919
		v-9.339h4.587c5.921,0,6.839,1,7.588,3.753l0.418,1.583h1.334l-0.583-7.839h-24.519v1.585c4.67,0,5.421,0.999,5.421,6.923v10.675
		c0,5.416-0.639,6.779-4.32,6.975c-3.499-0.536-5.902-2.444-9.189-6.059l-3.837-4.168c5.172-0.919,7.924-4.171,7.924-7.842
		c0-4.586-3.919-8.089-11.259-8.089h-14.678v1.585c4.67,0,5.421,0.999,5.421,6.923v10.675c0,5.92-0.751,7.005-5.421,7.005v1.583
		h16.595v-1.583c-4.668,0-5.419-1.085-5.419-7.005v-3.002h1.419l9.255,11.59h34.274l0.501-7.839H241.922z M197.725,404.59v-11.091
		h3.419c3.753,0,5.421,2.585,5.421,5.586c0,2.919-1.668,5.505-5.421,5.505H197.725z"/>
	<path fill="#504B48" d="M258.852,419.851c-3.336,0-6.255-1.749-7.506-2.835c-0.416,0.417-1.168,1.667-1.334,2.835h-1.584v-11.507
		h1.667c0.667,5.503,4.503,8.755,9.424,8.755c2.668,0,4.837-1.5,4.837-4.002c0-2.169-1.918-3.836-5.337-5.421l-4.753-2.252
		c-3.336-1.586-5.838-4.335-5.838-8.005c0-4.003,3.752-7.423,8.924-7.423c2.751,0,5.086,1,6.504,2.169
		c0.417-0.334,0.834-1.253,1.084-2.254h1.585v9.842h-1.752c-0.585-3.92-2.752-7.172-7.171-7.172c-2.337,0-4.504,1.334-4.504,3.418
		c0,2.17,1.75,3.336,5.754,5.172l4.587,2.251c4.004,1.919,5.587,5.004,5.587,7.506C269.025,416.182,264.439,419.851,258.852,419.851
		z"/>
	<path fill="#504B48" d="M284.537,419.851c-3.337,0-6.256-1.749-7.507-2.835c-0.416,0.417-1.168,1.667-1.333,2.835h-1.586v-11.507
		h1.669c0.667,5.503,4.502,8.755,9.423,8.755c2.669,0,4.837-1.5,4.837-4.002c0-2.169-1.919-3.836-5.337-5.421l-4.754-2.252
		c-3.335-1.586-5.838-4.335-5.838-8.005c0-4.003,3.754-7.423,8.924-7.423c2.752,0,5.086,1,6.506,2.169
		c0.416-0.334,0.833-1.253,1.083-2.254h1.585v9.842h-1.752c-0.583-3.92-2.753-7.172-7.172-7.172c-2.335,0-4.504,1.334-4.504,3.418
		c0,2.17,1.751,3.336,5.756,5.172l4.585,2.251c4.004,1.919,5.588,5.004,5.588,7.506C294.71,416.182,290.124,419.851,284.537,419.851
		z"/>
	<g>
		<path fill="#504B48" d="M39.382,231.873c0,43.857,25.489,81.761,62.45,99.725l-52.857-144.82
			C42.829,200.557,39.382,215.807,39.382,231.873z"/>
		<path fill="#504B48" d="M224.992,226.28c0-13.695-4.92-23.178-9.138-30.558c-5.616-9.128-10.883-16.859-10.883-25.986
			c0-10.185,7.724-19.667,18.605-19.667c0.494,0,0.958,0.061,1.438,0.09c-19.714-18.063-45.977-29.09-74.826-29.09
			c-38.711,0-72.768,19.863-92.583,49.944c2.604,0.08,5.053,0.133,7.134,0.133c11.587,0,29.53-1.409,29.53-1.409
			c5.973-0.351,6.678,8.423,0.709,9.127c0,0-6.005,0.708-12.68,1.058l40.351,120.025l24.251-72.727l-17.267-47.299
			c-5.966-0.351-11.62-1.058-11.62-1.058c-5.97-0.349-5.271-9.478,0.702-9.127c0,0,18.297,1.409,29.185,1.409
			c11.588,0,29.532-1.409,29.532-1.409c5.977-0.351,6.678,8.423,0.71,9.127c0,0-6.015,0.708-12.684,1.058l40.044,119.111
			l11.053-36.93C221.345,246.771,224.992,235.768,224.992,226.28z"/>
		<path fill="#504B48" d="M152.135,241.565l-33.247,96.608c9.925,2.917,20.424,4.512,31.301,4.512
			c12.903,0,25.279-2.229,36.795-6.279c-0.297-0.474-0.567-0.979-0.788-1.524L152.135,241.565z"/>
		<path fill="#504B48" d="M247.416,178.713c0.479,3.528,0.749,7.316,0.749,11.395c0,11.241-2.103,23.881-8.427,39.688
			l-33.846,97.856c32.942-19.212,55.102-54.901,55.102-95.778C260.994,212.608,256.073,194.493,247.416,178.713z"/>
		<path fill="#504B48" d="M150.189,102.708c-71.222,0-129.167,57.945-129.167,129.165c0,71.229,57.945,129.168,129.167,129.168
			c71.217,0,129.17-57.939,129.17-129.168C279.359,160.653,221.406,102.708,150.189,102.708z M150.189,355.118
			c-67.955,0-123.244-55.286-123.244-123.245c0-67.955,55.289-123.242,123.244-123.242c67.953,0,123.238,55.287,123.238,123.242
			C273.427,299.832,218.142,355.118,150.189,355.118z"/>
	</g>
</g>
<g>
</g>
<g>
</g>
<g>
</g>
<g>
</g>
<g>
</g>
<g>
</g>
</svg>
